<?xml version="1.0" standalone="no"?><!DOCTYPE svg PUBLIC "-//W3C//DTD SVG 1.1//EN" "http://www.w3.org/Graphics/SVG/1.1/DTD/svg11.dtd"><svg t="1731401718004" class="icon" viewBox="0 0 1024 1024" version="1.1" xmlns="http://www.w3.org/2000/svg" p-id="42195" xmlns:xlink="http://www.w3.org/1999/xlink" width="48" height="48"><path d="M46.08 358.4H204.8c15.36 0 25.6 2.56 33.28 5.12 7.68 5.12 10.24 10.24 10.24 20.48 0 5.12-5.12 12.8-12.8 23.04s-17.92 20.48-28.16 33.28c-10.24 12.8-20.48 25.6-30.72 43.52-10.24 17.92-20.48 38.4-30.72 64-5.12 10.24-7.68 20.48-7.68 28.16-2.56 7.68-2.56 17.92-5.12 28.16-2.56 12.8-2.56 20.48-5.12 28.16-2.56 15.36-7.68 25.6-15.36 30.72-5.12 5.12-15.36 7.68-25.6 7.68s-17.92-2.56-23.04-10.24c-5.12-5.12-7.68-15.36-7.68-25.6s2.56-20.48 7.68-35.84c5.12-15.36 10.24-33.28 20.48-56.32 10.24-23.04 23.04-43.52 35.84-66.56 15.36-23.04 33.28-46.08 51.2-69.12h-128c-12.8 0-23.04-2.56-30.72-7.68-7.68-5.12-10.24-10.24-10.24-20.48s2.56-15.36 10.24-17.92c10.24 0 20.48-2.56 33.28-2.56zM542.72 358.4h161.28c15.36 0 25.6 2.56 33.28 5.12s10.24 10.24 10.24 20.48c0 5.12-5.12 12.8-12.8 23.04s-17.92 20.48-28.16 33.28c-10.24 12.8-20.48 25.6-30.72 43.52-10.24 17.92-20.48 38.4-30.72 64-5.12 10.24-7.68 20.48-7.68 28.16-2.56 7.68-2.56 17.92-5.12 28.16-2.56 12.8-2.56 20.48-5.12 28.16-2.56 15.36-7.68 25.6-15.36 30.72-5.12 5.12-15.36 7.68-25.6 7.68s-17.92-2.56-23.04-10.24c-5.12-5.12-7.68-15.36-7.68-25.6s2.56-20.48 7.68-35.84c5.12-15.36 10.24-33.28 20.48-56.32 10.24-23.04 23.04-43.52 35.84-66.56 15.36-23.04 33.28-46.08 51.2-69.12h-128c-12.8 0-23.04-2.56-30.72-7.68-7.68-5.12-10.24-10.24-10.24-20.48s2.56-15.36 10.24-17.92c7.68 0 17.92-2.56 30.72-2.56z" fill="#FC6614" p-id="42196"></path><path d="M312.32 396.8v107.52l125.44-128c5.12-5.12 10.24-10.24 15.36-12.8 5.12-2.56 10.24-5.12 17.92-5.12 10.24 0 15.36 2.56 23.04 7.68 5.12 5.12 7.68 12.8 7.68 17.92 0 10.24-5.12 17.92-15.36 28.16l-76.8 71.68 89.6 125.44 15.36 23.04c2.56 7.68 5.12 12.8 5.12 17.92 0 7.68-2.56 12.8-7.68 17.92-5.12 5.12-12.8 7.68-23.04 7.68-7.68 0-15.36-2.56-20.48-5.12-5.12-2.56-10.24-7.68-15.36-15.36-5.12-5.12-7.68-12.8-10.24-17.92l-74.24-112.64-51.2 48.64v64c0 12.8-2.56 23.04-10.24 28.16s-12.8 10.24-23.04 10.24c-5.12 0-10.24-2.56-15.36-5.12-5.12-2.56-7.68-7.68-12.8-10.24-2.56-2.56-2.56-7.68-2.56-12.8v-250.88c0-12.8 2.56-23.04 7.68-28.16 5.12-5.12 12.8-10.24 23.04-10.24s17.92 2.56 23.04 10.24c2.56 5.12 5.12 15.36 5.12 28.16zM811.52 396.8v107.52l125.44-128c5.12-5.12 10.24-10.24 15.36-12.8 5.12-2.56 10.24-5.12 17.92-5.12 10.24 0 15.36 2.56 23.04 7.68 5.12 5.12 7.68 12.8 7.68 17.92 0 10.24-5.12 17.92-15.36 28.16l-76.8 71.68 89.6 125.44 15.36 23.04c2.56 7.68 5.12 12.8 5.12 17.92 0 7.68-2.56 12.8-7.68 17.92-5.12 5.12-12.8 7.68-23.04 7.68-7.68 0-15.36-2.56-20.48-5.12s-10.24-7.68-15.36-15.36c-5.12-5.12-7.68-12.8-10.24-17.92l-74.24-112.64-51.2 48.64v64c0 12.8-2.56 23.04-10.24 28.16-5.12 5.12-12.8 10.24-23.04 10.24-5.12 0-10.24-2.56-15.36-5.12-5.12-2.56-7.68-7.68-12.8-10.24-2.56-2.56-2.56-7.68-2.56-12.8v-250.88c0-12.8 2.56-23.04 7.68-28.16 5.12-5.12 12.8-10.24 23.04-10.24s17.92 2.56 23.04 10.24c0 5.12 5.12 15.36 5.12 28.16z" fill="#F0CC0F" p-id="42197"></path></svg>