<?xml version="1.0" standalone="no"?><!DOCTYPE svg PUBLIC "-//W3C//DTD SVG 1.1//EN" "http://www.w3.org/Graphics/SVG/1.1/DTD/svg11.dtd"><svg t="1731401579290" class="icon" viewBox="0 0 1024 1024" version="1.1" xmlns="http://www.w3.org/2000/svg" p-id="40130" xmlns:xlink="http://www.w3.org/1999/xlink" width="48" height="48"><path d="M131.488 921.344h272.384c4.032 0 7.328 5.792 7.328 9.792 0 3.968-3.296 9.728-7.328 9.728H131.488c-4.032 0-7.296-5.76-7.296-9.728 0.032-4 3.264-9.792 7.296-9.792z m21.888-29.216c0 4 3.296 9.76 7.328 9.76h204.288c4.032 0 7.296-5.76 7.296-9.76s-3.264-9.76-7.296-9.76H160.672c-4 0-7.296 5.76-7.296 9.76z m252.96-255.872v160.896a7.296 7.296 0 0 1-7.328 7.264H139.072a7.328 7.328 0 0 1-7.328-7.264v-160.896c0-4.032 3.296-7.232 7.328-7.232h259.968c4.064 0 7.296 3.2 7.296 7.232z m-19.616 62.784v-50.528H151.36v136.448h235.328V699.04z m-12.032-142.688c-0.96-2.816-2.624-5.28-4.608-5.28H165.312c-3.04 0-5.472 5.728-5.472 9.76 0 3.968 2.432 9.728 5.472 9.728H370.112c1.984 0 3.616-2.496 4.608-5.28a13.6 13.6 0 0 0 0.896-4.448 14.368 14.368 0 0 0-0.928-4.48z m29.184-44.288H131.488c-4.032 0-7.296 5.76-7.296 9.76s3.264 9.76 7.296 9.76H403.84c4.032 0 7.328-5.76 7.328-9.76 0.032-4-3.264-9.76-7.296-9.76zM970.688 25.984v526.72c0 3.968-6.656 21.472-10.656 21.472h-3.488l-25.088 32.576v8.928c0 3.968-11.2 16.96-15.264 16.96h-168.8v-19.456h164.48V106.432H519.584v105.344h-19.616v-125.12c0-5.056 3.904-9.056 8.832-9.568 0.032-0.096-0.16-0.16-0.032-0.288L563.296 25.6c1.376-1.344 3.2 2.848 5.12 2.848H960c4 0.032 10.688-6.464 10.688-2.464z m-19.616 21.984H575.744l-33.92 38.976H916.16c4.064 0 15.264-6.944 15.264-2.944v497.248l19.616-35.04V47.968z m-139.456 487.264c4.032 0 7.296-5.76 7.296-9.76 0-3.968-3.264-9.728-7.296-9.728h-64.256v19.488h64.256z m10.624-341.088c0-4-2.464-9.76-5.504-9.76h-204.8c-3.008 0-5.44 5.76-5.44 9.76s2.432 9.728 5.44 9.728h204.8c3.04 0.032 5.504-5.728 5.504-9.728z m28.288 380.032c4.032 0 7.328-5.76 7.328-9.728 0-4-3.296-9.792-7.328-9.792h-103.168v19.488h103.168z m7.328-419.008c0-4-3.296-9.76-7.328-9.76h-272.384c-4.032 0-7.296 5.76-7.296 9.76s3.264 9.76 7.296 9.76h272.384c4.032-0.032 7.328-5.76 7.328-9.76z m-24.48 126.688v136.448h-86.016v19.488h98.304a7.328 7.328 0 0 0 7.328-7.264V269.632a7.296 7.296 0 0 0-7.328-7.264h-98.304v19.488h86.016z m-245.056 436.672c4 0 7.264-5.76 7.264-9.76s-3.264-9.76-7.264-9.76h-64.288v19.488h64.288z m38.88 39.008c4.064 0 7.328-5.76 7.328-9.76s-3.264-9.76-7.328-9.76h-103.168v19.488H627.2z m-4.832-311.84h-98.336v19.488h86.016V601.6h-86.016v19.488h98.336a7.36 7.36 0 0 0 7.328-7.264v-160.896a7.296 7.296 0 0 0-7.328-7.232z m4.832-116.96h-272.32c-4.032 0-7.328 5.76-7.328 9.76s3.296 9.76 7.328 9.76h272.32c4.064 0 7.328-5.76 7.328-9.76-0.032-4-3.264-9.76-7.328-9.76z m-29.184 44.192c-0.96-2.752-2.624-5.216-4.576-5.216h-204.8c-3.008 0-5.472 5.76-5.472 9.76s2.464 9.728 5.472 9.728h204.8c1.952 0 3.584-2.432 4.576-5.216 0.544-1.536 0.928-3.104 0.928-4.544s-0.416-2.976-0.928-4.512z m149.344-163.616V736c0 4-6.688 21.504-10.688 21.504h-3.488l-25.056 32.576v8.928c0 3.936-11.2 16.928-15.264 16.928h-168.832v-19.424h164.48V289.76H296.256v105.344h-19.616v-125.12c0-5.056 3.936-9.056 8.864-9.568 0.032-0.096-0.16-0.192-0.064-0.288l54.528-51.2c1.376-1.344 3.232 2.848 5.152 2.848h391.552c4 0.032 10.688-6.464 10.688-2.464z m-19.616 72.544v-50.56H352.448L318.496 270.272h374.368c4.064 0 15.264-6.944 15.264-2.944V764.544l19.616-35.008V281.856z m-203.712 110.784v526.656c0 3.968-6.656 21.472-10.656 21.472h-3.488l-25.088 32.576v8.928c0 3.968-11.2 16.96-15.232 16.96H65.856c-0.384 0-0.512-0.224-0.64-0.416-0.704 0.128-1.376 0.416-2.08 0.416a9.824 9.824 0 0 1-9.824-9.76V453.312c0-5.056 3.904-9.056 8.832-9.568 0.032-0.096-0.16-0.16-0.032-0.288l54.528-51.2c1.376-1.344 3.232 2.848 5.152 2.848h391.52c1.856 0 4.192-1.344 6.24-2.432 2.464-1.28 4.48-2.208 4.48-0.032z m-58.848 423.328V473.088H72.928V979.84h392.256v-163.872z m39.232-194.88v-206.464H129.12l-33.952 38.976h374.368c4.032 0 15.232-6.944 15.232-2.944V947.84l19.616-35.04V621.088z" fill="#00A0E8" p-id="40131"></path></svg>