<?xml version="1.0" standalone="no"?><!DOCTYPE svg PUBLIC "-//W3C//DTD SVG 1.1//EN" "http://www.w3.org/Graphics/SVG/1.1/DTD/svg11.dtd"><svg t="1731404541176" class="icon" viewBox="0 0 1024 1024" version="1.1" xmlns="http://www.w3.org/2000/svg" p-id="22360" xmlns:xlink="http://www.w3.org/1999/xlink" width="48" height="48"><path d="M139.15 521.102c18.887 15.93 35.726 30.151 52.68 44.26 67.81 57.002 135.622 114.119 203.662 171.008 15.473 12.97 24.007 28.33 19.57 48.697-6.941 31.744-43.805 46.193-70.202 26.851-20.48-15.132-39.367-32.199-58.936-48.583C215.95 704.512 146.09 645.803 76.23 587.093c-8.078-6.826-16.27-13.54-22.414-22.3-21.845-30.948-16.953-71.566 12.857-98.418 38.57-34.816 77.596-69.063 116.394-103.538 51.2-45.51 102.4-90.908 153.6-136.305 19.912-17.636 44.032-19.684 62.123-5.12 22.756 18.318 23.325 50.176 0.569 70.883-25.372 23.21-51.428 45.739-77.141 68.608-59.165 52.452-118.215 105.017-177.38 157.469-1.251 0.91-3.072 1.365-5.689 2.73z" fill="#D8643B" p-id="22361"></path><path d="M884.622 521.216c-18.66-16.725-37.205-33.45-55.978-50.062-37.775-33.565-75.776-67.015-113.664-100.466-28.445-25.145-56.776-50.517-85.334-75.548-14.79-12.971-22.755-28.559-18.318-48.242 3.982-17.522 15.36-29.127 32.768-33.792 17.522-4.665 32.313 1.479 45.397 13.312 32.996 29.468 66.333 58.71 99.442 88.178 56.775 50.517 113.892 100.807 170.212 151.78 30.037 27.078 35.157 64.397 14.45 96.596-9.217 14.45-23.439 24.121-36.296 34.93-60.87 51.314-121.97 102.514-182.954 153.714-23.552 19.797-46.877 39.822-70.884 59.05-19.683 15.816-46.307 12.971-62.464-5.347-15.929-18.09-14.677-45.056 3.3-62.578 7.054-6.94 14.79-13.198 22.414-19.57 60.757-51.086 121.4-102.058 182.158-153.03 14.905-12.516 29.924-25.032 44.829-37.547 3.982-3.414 8.305-6.144 10.922-11.378z" fill="#A6A6A6" p-id="22362"></path></svg>