<?xml version="1.0" standalone="no"?><!DOCTYPE svg PUBLIC "-//W3C//DTD SVG 1.1//EN" "http://www.w3.org/Graphics/SVG/1.1/DTD/svg11.dtd"><svg t="1731403439855" class="icon" viewBox="0 0 1024 1024" version="1.1" xmlns="http://www.w3.org/2000/svg" p-id="6563" xmlns:xlink="http://www.w3.org/1999/xlink" width="48" height="48"><path d="M384.48 936.75h85.13V553.52h404.44v383.23h85.13V468.39h-574.7z" p-id="6564"></path><path d="M746.23 745.14c0 5.64-2.23 11.05-6.2 15.05s-9.37 6.27-15.01 6.3H597.47v85.13h148.76c22.58 0 44.23-8.97 60.2-24.93a85.144 85.144 0 0 0 24.93-60.2V596.23h-85.13v148.91zM831.49 425.83V276.92H512.18v148.91h85.13v-63.78h149.05v63.78zM512.18 596.23h85.13v170.12h-85.13z" p-id="6565"></path><path d="M725 148.66V85.31H618.66v63.35H384.49v-41.99L86.53 149.23v85.13l127.7-18.34V340.7H86.53v85.13h106.34L65.18 830.26h85.13l63.92-202.21v308.7h85.13V425.83h85.13V340.7h-85.13V203.98l85.13-12.18v42.56h574.69v-85.7z" p-id="6566"></path></svg>