<?xml version="1.0" standalone="no"?><!DOCTYPE svg PUBLIC "-//W3C//DTD SVG 1.1//EN" "http://www.w3.org/Graphics/SVG/1.1/DTD/svg11.dtd"><svg t="1731400220630" class="icon" viewBox="0 0 1024 1024" version="1.1" xmlns="http://www.w3.org/2000/svg" p-id="27234" xmlns:xlink="http://www.w3.org/1999/xlink" width="48" height="48"><path d="M921.6 153.6H454.656L409.6 0H102.4A102.725818 102.725818 0 0 0 0 102.4v665.6a102.725818 102.725818 0 0 0 102.4 102.4h358.4L512 1024h409.6a102.725818 102.725818 0 0 0 102.4-102.4V256a102.725818 102.725818 0 0 0-102.4-102.4M264.704 644.608a209.314909 209.314909 0 0 1-148.107636-357.469091A209.314909 209.314909 0 0 1 264.704 225.745455 198.656 198.656 0 0 1 404.992 281.6l4.608 2.048-64 60.416-3.072-2.56a111.243636 111.243636 0 0 0-77.824-30.208A123.252364 123.252364 0 0 0 142.848 435.2a123.252364 123.252364 0 0 0 121.856 123.904 104.913455 104.913455 0 0 0 108.544-74.752H260.096V404.992h202.24l0.512 4.608c1.908364 9.960727 2.792727 20.061091 2.56 30.208 0 120.32-81.408 204.8-200.704 204.8m308.736-87.552c16.989091 31.185455 37.422545 60.416 60.928 87.04l-27.648 27.136-33.28-114.176m39.424-38.912H563.2l-16.896-53.248h204.288a393.216 393.216 0 0 1-79.872 140.288 470.109091 470.109091 0 0 1-57.856-87.04M972.8 921.6a51.339636 51.339636 0 0 1-51.2 51.2h-358.4l102.4-102.4-41.472-141.824 47.104-47.104 137.216 137.728 36.352-37.376-137.728-137.216a447.022545 447.022545 0 0 0 98.304-179.712H870.4V411.648h-186.368V358.4h-53.248v53.248h-100.352L470.016 204.8H921.6a51.339636 51.339636 0 0 1 51.2 51.2v665.6z" fill="#4989F3" p-id="27235"></path></svg>