<?xml version="1.0" standalone="no"?><!DOCTYPE svg PUBLIC "-//W3C//DTD SVG 1.1//EN" "http://www.w3.org/Graphics/SVG/1.1/DTD/svg11.dtd"><svg t="1731472372815" class="icon" viewBox="0 0 1024 1024" version="1.1" xmlns="http://www.w3.org/2000/svg" p-id="4507" xmlns:xlink="http://www.w3.org/1999/xlink" width="48" height="48"><path d="M454.50666667 446.72c24.64 8.64 41.17333333 31.89333333 41.17333333 58.02666667 0 33.92-27.41333333 61.44-61.33333333 61.44h-0.10666667c-26.13333333 0-49.38666667-16.53333333-58.02666667-41.17333334-7.68 18.24-11.73333333 37.76-11.62666666 57.49333334 0 81.49333333 66.02666667 147.52 147.52 147.52s147.52-66.02666667 147.52-147.52-66.02666667-147.52-147.52-147.52c-19.84 0-39.36 3.94666667-57.6 11.73333333z" fill="#202931" p-id="4508"></path><path d="M389.22666667 226.02666667c53.86666667-39.25333333 118.72-60.37333333 185.28-60.26666667 38.72 0 75.52 5.97333333 109.65333333 18.88 2.24 0.74666667 5.12 1.28 6.50666667 1.28 8.10666667 0 14.18666667-5.65333333 14.18666666-13.54666667 0-5.44-2.66666667-9.92-6.08-13.12C608.21333333 75.94666667 512 41.6 512 41.6c-214.61333333 85.76-372.37333333 293.33333333-376.96 530.56-2.02666667 69.76 15.46666667 138.66666667 50.45333333 199.04 20.8 36.16 47.57333333 68.69333333 79.14666667 96.10666667-60.8-26.98666667-111.57333333-72.64-144.74666667-130.34666667-19.30666667-33.49333333-32.53333333-68.37333333-38.50666666-104.42666667-0.42666667-2.13333333-1.06666667-4.26666667-2.13333334-6.29333333-4.05333333-7.04-11.94666667-9.49333333-18.77333333-5.54666667-4.69333333 2.66666667-7.25333333 7.25333333-8.21333333 11.84-26.98666667 120.10666667-8.64 220.58666667-8.64 220.58666667 184.21333333 145.06666667 447.89333333 176.74666667 657.06666666 56 98.34666667-56.85333333 161.49333333-151.25333333 181.65333334-254.72l0.10666666 0.10666667c7.04 66.24-7.14666667 132.90666667-40.53333333 190.50666666-19.30666667 33.49333333-42.88 62.4-71.14666667 85.54666667-1.70666667 1.38666667-3.2 3.09333333-4.37333333 4.90666667-4.05333333 7.04-2.24 15.14666667 4.58666667 19.09333333 4.69333333 2.77333333 9.92 2.66666667 14.4 1.28 117.44-36.69333333 195.41333333-102.82666667 195.41333333-102.82666667C1013.54666667 625.06666667 913.28 385.28 711.36 262.4c-94.82666667-58.88-213.33333333-74.02666667-322.13333333-36.37333333z m429.65333333 286.61333333c3.09333333 15.25333333 4.69333333 30.82666667 4.69333333 46.50666667 0 148.8-139.41333333 269.44-311.46666666 269.44s-311.46666667-120.53333333-311.46666667-269.44c0-15.78666667 1.70666667-31.36 4.69333333-46.50666667C269.86666667 446.29333333 383.04 402.24 512 402.24s242.13333333 44.05333333 306.88 110.4z" fill="#202931" p-id="4509"></path></svg>