<?xml version="1.0" standalone="no"?><!DOCTYPE svg PUBLIC "-//W3C//DTD SVG 1.1//EN" "http://www.w3.org/Graphics/SVG/1.1/DTD/svg11.dtd"><svg t="1731454584715" class="icon" viewBox="0 0 1055 1024" version="1.1" xmlns="http://www.w3.org/2000/svg" p-id="4230" xmlns:xlink="http://www.w3.org/1999/xlink" width="49.453125" height="48"><path d="M543.329485 0a30527.09571 30527.09571 0 0 1 184.892552 246.578016c21.913495 29.777777 42.188597 58.040041 60.825308 84.868713a225.278919 225.278919 0 0 1 121.691576 431.921127 389.281971 389.281971 0 0 1-734.818873-0.04096A225.278919 225.278919 0 1 1 305.557826 333.003202c18.84151-27.320189 39.239492-56.114931 61.152987-86.425186 35.225431-48.824086 94.084668-131.071371 176.618672-246.618976z m432.535524 449.206164l-65.945284 39.649089a102.399508 102.399508 0 1 1-173.956285 104.529419l-75.079319 45.096743a184.319115 184.319115 0 1 0 314.980888-189.234291z m-868.88031-3.932141a184.319115 184.319115 0 0 0 310.843948 197.098574l4.095981-7.782363-70.655661-42.516276a102.399508 102.399508 0 1 1-173.628607-104.324619l-70.655661-42.475316z" p-id="4231"></path></svg>