<?xml version="1.0" standalone="no"?><!DOCTYPE svg PUBLIC "-//W3C//DTD SVG 1.1//EN" "http://www.w3.org/Graphics/SVG/1.1/DTD/svg11.dtd"><svg t="1731391706441" class="icon" viewBox="0 0 1024 1024" version="1.1" xmlns="http://www.w3.org/2000/svg" p-id="7580" xmlns:xlink="http://www.w3.org/1999/xlink" width="48" height="48"><path d="M202.752 87.04c-46.08 18.944-66.048 57.856-70.656 68.096-5.632 11.264-23.04 48.64-9.728 93.696 1.024 4.096 16.896 55.296 68.608 80.384 50.688 24.576 115.2 14.848 164.352-24.064-29.184 3.072-45.056-6.656-51.2-11.264-3.584-2.56-3.072-5.12-20.992-25.088-15.36-17.408-26.112-27.648-23.04-36.352 3.584-11.264 27.648-11.776 34.816-12.288 23.552-0.512 32.768 8.192 57.856 12.288 10.752 2.048 26.624 3.072 46.08 0 0.512-12.8 2.048-66.048-34.816-109.056-37.888-45.056-107.008-58.368-161.28-36.352z" fill="#FF6633" p-id="7581"></path><path d="M502.784 254.976c-5.632-9.728-26.112-48.64-10.752-96.768 19.456-60.928 80.896-84.48 88.064-87.04 50.176-18.432 110.08-11.776 153.6 19.456C788.48 130.56 788.48 188.928 788.48 197.12c0 6.656-3.072 81.408-76.8 115.712-48.64 22.528-108.032 18.944-153.6-9.728 11.776-2.56 35.328-9.728 54.784-29.184 39.424-38.912 23.552-92.16 22.016-96.768-8.704 12.8-28.672 38.912-66.048 57.856-26.112 13.824-50.688 18.432-66.048 19.968z" fill="#66CC00" p-id="7582"></path><path d="M637.44 841.216c-35.84 29.696-132.608 101.888-262.144 105.472-36.864 1.024-94.208 2.56-144.384-32.256-30.208-20.992-46.08-47.616-54.272-65.024l9.216-380.928c-14.848 5.632-30.208 10.752-45.056 16.384V428.032c51.2-24.064 102.4-48.64 153.6-72.704v437.76c14.336 27.648 38.912 62.464 81.408 80.896 66.56 29.184 136.704 11.776 180.736 0 35.328-9.728 62.976-23.04 80.896-32.768z" fill="#0099FF" p-id="7583"></path><path d="M911.36 922.624h-144.384c-14.848-1.024-38.4-4.096-63.488-16.384-6.144-3.072-20.992-10.752-36.352-24.064-12.288-10.752-18.944-20.48-27.136-32.256-8.192-11.776-17.92-27.648-27.136-48.64l-9.216-380.928H504.32V347.648h217.088l9.216 470.016c26.624 16.384 53.76 32.256 81.408 48.64 33.28 18.944 66.56 37.888 99.328 56.32z" fill="#FFCC00" p-id="7584"></path></svg>