<?xml version="1.0" standalone="no"?><!DOCTYPE svg PUBLIC "-//W3C//DTD SVG 1.1//EN" "http://www.w3.org/Graphics/SVG/1.1/DTD/svg11.dtd"><svg t="1731402470582" class="icon" viewBox="0 0 1024 1024" version="1.1" xmlns="http://www.w3.org/2000/svg" p-id="5302" data-spm-anchor-id="a313x.search_index.0.i7.7d0f3a81NtCRXU" xmlns:xlink="http://www.w3.org/1999/xlink" width="48" height="48"><path d="M857.514667 0A166.357333 166.357333 0 0 1 1024 166.528v690.944A166.357333 166.357333 0 0 1 857.514667 1024H272.768l-2.176-441.173333v-3.157334c0-167.253333 132.778667-302.506667 297.088-302.506666 98.56 0 178.218667 81.152 178.218667 181.504 0 100.352-79.658667 181.504-178.218667 181.504-32.853333 0-59.434667-27.050667-59.434667-60.501334 0-33.408 26.581333-60.501333 59.434667-60.501333 32.810667 0 59.392-27.050667 59.392-60.501333 0-33.450667-26.581333-60.501333-59.392-60.501334-98.56 0-178.261333 81.066667-178.261333 181.461334 0 100.352 79.701333 181.504 178.261333 181.504 164.266667 0 297.045333-135.210667 297.045333-302.506667 0-167.253333-132.778667-302.464-297.045333-302.464-229.973333 0-416 189.269333-416 423.466667v3.669333l0.981333 440.106667A166.357333 166.357333 0 0 1 0 857.472V166.528A166.357333 166.357333 0 0 1 166.485333 0z" p-id="5303" fill="#0b8c91"></path></svg>