<?xml version="1.0" standalone="no"?><!DOCTYPE svg PUBLIC "-//W3C//DTD SVG 1.1//EN" "http://www.w3.org/Graphics/SVG/1.1/DTD/svg11.dtd"><svg t="1731399064853" class="icon" viewBox="0 0 1024 1024" version="1.1" xmlns="http://www.w3.org/2000/svg" p-id="15821" xmlns:xlink="http://www.w3.org/1999/xlink" width="48" height="48"><path d="M188.416 3.755c-33.11 4.096-63.488 15.701-90.795 34.133-55.637 37.205-86.357 88.747-94.549 158.379C0.682 216.064 0 334.848 0.682 534.187c1.025 281.258 1.707 308.906 7.169 327.68 23.21 78.165 78.848 133.461 155.989 154.282 20.48 5.803 47.104 6.144 348.16 6.144 302.763 0 327.68-0.341 348.16-6.144 78.507-21.504 134.827-77.824 155.99-155.989 5.802-20.48 6.143-47.104 6.143-348.16s-0.341-327.68-6.144-348.16C995.328 86.699 940.032 31.061 861.867 7.85c-18.774-5.46-45.739-5.802-336.214-6.485-173.738-0.341-325.632 0.683-337.237 2.39zM494.251 212.65c5.802 6.826-24.235 81.92-34.475 87.04-4.096 2.389-66.56 11.605-138.923 20.821L189.44 337.237h645.12l-131.413-16.725c-99.328-12.97-133.462-18.432-139.606-22.87-5.12-3.754-12.97-18.431-21.162-39.935-13.654-34.816-15.702-44.374-10.24-47.787 3.072-1.707 269.312 30.379 286.037 34.475 12.63 3.413 22.87 18.773 39.936 59.05l15.701 37.547v201.045c0 217.771-0.341 220.16-18.773 244.054-4.779 6.826-17.067 16.042-26.624 21.162l-17.408 8.534H212.992l-17.408-8.534c-9.557-5.12-21.845-14.336-26.624-21.162-18.432-23.894-18.773-26.283-18.773-243.371V342.016l17.066-40.277c16.726-40.278 26.966-53.931 41.984-57.686 7.851-2.048 261.803-34.816 274.091-35.498 4.096 0 8.875 1.706 10.923 4.096z" fill="#306EFF" p-id="15822"></path><path d="M373.76 467.285c-15.36 6.486-19.797 16.384-21.504 46.422-3.072 54.954 6.144 76.8 31.744 76.8s34.816-21.504 31.744-77.142c-1.365-24.917-2.73-30.037-9.899-37.205-9.557-9.216-22.186-12.97-32.085-8.875z m256 0c-15.36 6.486-19.797 16.384-21.504 46.422-3.072 54.954 6.144 76.8 31.744 76.8s34.816-21.504 31.744-77.142c-1.365-24.917-2.73-30.037-9.899-37.205-9.557-9.216-22.186-12.97-32.085-8.875z m-205.483 212.31c-8.192 3.072-12.629 13.653-9.557 23.21 3.755 12.63 57.685 27.648 97.28 27.648 42.325 0 94.208-15.36 97.621-29.013 2.39-9.899-3.072-20.821-11.605-22.87-3.413-1.023-15.36 1.025-26.624 4.78-40.277 12.629-82.261 11.605-129.365-3.414-5.803-1.707-13.654-2.048-17.75-0.341z" fill="#306EFF" p-id="15823"></path></svg>