<?xml version="1.0" standalone="no"?><!DOCTYPE svg PUBLIC "-//W3C//DTD SVG 1.1//EN" "http://www.w3.org/Graphics/SVG/1.1/DTD/svg11.dtd"><svg t="1731400282197" class="icon" viewBox="0 0 1024 1024" version="1.1" xmlns="http://www.w3.org/2000/svg" p-id="28241" xmlns:xlink="http://www.w3.org/1999/xlink" width="48" height="48"><path d="M241.29537297 142.80465793C204.50619412 147.5843544 170.32412243 172.20703316 154.24696159 205.66490841 140.92174722 233.32921219 141.93562222 206.96846199 141.93562222 513.44839287c0 259.11748409 0.14483929 270.55978775 2.75194645 280.26401997C153.66760444 827.74964523 175.97285461 855.41394901 205.66490841 869.75303841c27.66430378 13.32521438 1.30355359 12.31133938 307.78348446 12.31133937 259.11748409 0 270.55978775-0.14483929 280.26401997-2.75194645 34.0372324-8.98003579 61.70153618-31.28528595 76.04062557-60.97733974 13.32521438-27.66430378 12.31133938-1.30355359 12.31133937-307.78348446 0-259.11748409-0.14483929-270.55978775-2.75194644-280.26401997C870.33239556 196.25035477 848.02714539 168.4412117 818.33509159 154.24696159c-27.66430378-13.32521438 0.43451786-12.16650009-301.26571655-12.45617866C370.4920168 141.64594364 246.364748 142.0804615 241.29537297 142.80465793z m158.59901905 177.28328706c36.06498242 6.37292861 62.42573261 19.40846443 87.48292923 43.59662532 25.63655377 24.76751804 42.29307175 56.19764328 50.83858967 96.46296502 3.76582146 17.5255537 5.35905361 60.25314331 2.89678573 80.24096489-11.29746438 92.40746498-66.62607193 152.22609043-152.08125115 164.39259052-19.11878586 2.60710716-54.02505397 1.013875-71.4057684-3.47614289-66.48123264-17.38071443-111.52625084-69.0883398-125.28598308-144.40476894-3.47614289-18.97394658-3.47614289-66.33639336-0.14483928-84.73098278 4.20033931-22.30525017 9.55939293-38.38241101 19.26362514-57.93571472 16.51167869-33.31303597 36.64433956-55.47344685 66.62607193-73.5783577 15.64264297-9.26971435 41.42403603-18.24975014 60.97733975-21.14653587 14.48392868-2.1725893 46.92792893-1.73807144 60.83250046 0.57935715z m360.21530628 104.28428649c29.11269665 6.08325005 53.73537541 27.66430378 65.03283977 56.77700043 8.98003579 23.0294466 8.83519649 21.43621445 9.41455365 124.56178665l0.57935714 94.58005429H765.46875191v-83.71710778c0-91.82810783-0.28967857-95.73876858-8.69035721-112.82980442-7.53164291-15.20812511-19.26362514-22.73976803-38.52725029-24.62267876-21.14653587-2.02775002-43.30694676 11.29746438-53.88021469 32.15432167-5.64873218 11.15262508-6.08325005 19.84298229-6.08325005 106.02235795V700.29107285h-69.23317909l-0.72419643-132.23826885c-0.43451786-72.56448269-1.30355359-133.831501-1.73807144-136.1489296l-1.01387502-3.91066075h30.41625024c27.80914307 0 30.56108952 0.28967857 31.28528595 2.46226787 0.43451786 1.44839287 1.1587143 10.13875008 1.73807143 19.26362515 0.43451786 9.12487507 1.1587143 17.09103584 1.59323216 17.81523227 0.28967857 0.57935715 3.47614289-2.75194645 6.80744648-7.38680361 13.32521438-17.96007157 35.77530383-31.57496453 60.39798259-36.354661 10.13875008-2.02775002 31.57496453-1.73807144 42.29307176 0.57935715z" fill="#067bef" p-id="28242"></path><path d="M342.82771302 376.43042755c-15.49780369 3.76582146-29.11269665 11.87682152-42.29307176 25.34687519-17.5255537 17.67039299-26.79526807 36.49950027-33.60271453 67.49510765-4.05550003 18.68426799-5.06937504 57.64603615-2.02775002 76.33030414 10.71810723 65.46735764 48.08664322 104.2842865 100.80814362 104.57396508 16.80135728 0 26.21591092-2.02775002 41.27919674-9.26971435 39.39628601-18.82910728 61.84637546-66.19155407 61.70153617-130.35535813-0.14483929-49.24535752-14.3390894-87.62776852-42.00339317-113.26432229-11.29746438-10.42842865-23.89848232-17.38071443-37.94789314-20.712018-11.15262508-2.60710716-35.19594669-2.60710716-45.91405391-0.14483929z" fill="#067bef" p-id="28243"></path></svg>