<?xml version="1.0" standalone="no"?><!DOCTYPE svg PUBLIC "-//W3C//DTD SVG 1.1//EN" "http://www.w3.org/Graphics/SVG/1.1/DTD/svg11.dtd"><svg t="1731399878826" class="icon" viewBox="0 0 1024 1024" version="1.1" xmlns="http://www.w3.org/2000/svg" p-id="24168" xmlns:xlink="http://www.w3.org/1999/xlink" width="48" height="48"><path d="M330.24 529.92c-79.36 343.04-53.76 350.72-53.76 350.72 33.28 15.36 148.48-345.6 148.48-345.6-46.08 7.68-94.72-5.12-94.72-5.12zM1006.08 519.68c-17.92-12.8-51.2-20.48-97.28-20.48-48.64 0-97.28 10.24-104.96 10.24l-17.92 56.32s43.52-17.92 92.16-17.92c23.04 0 38.4 2.56 51.2 7.68 10.24 5.12 12.8 12.8 10.24 25.6l-28.16 94.72c-7.68 5.12-17.92 10.24-25.6 12.8s-17.92 5.12-28.16 5.12c-10.24 0-17.92 0-23.04-2.56-5.12-2.56-7.68-2.56-10.24-5.12-2.56-2.56-5.12-5.12-5.12-7.68 0-2.56 0-7.68 2.56-12.8 2.56-7.68 5.12-12.8 12.8-17.92 5.12-5.12 12.8-7.68 23.04-10.24 7.68-2.56 17.92-2.56 30.72-5.12h12.8l12.8-43.52c-15.36 0-33.28 2.56-48.64 5.12-23.04 2.56-43.52 7.68-61.44 12.8s-33.28 15.36-43.52 25.6c-12.8 10.24-20.48 25.6-25.6 40.96-5.12 20.48-2.56 38.4 10.24 53.76 12.8 12.8 43.52 20.48 69.12 20.48 117.76 0 179.2-64 179.2-64l30.72-102.4c2.56-28.16-2.56-48.64-17.92-61.44zM719.36 522.24c-10.24-15.36-43.52-23.04-71.68-23.04-99.84 0-168.96 30.72-168.96 30.72L409.6 747.52h84.48l53.76-171.52c10.24-5.12 20.48-7.68 28.16-10.24 7.68-2.56 17.92-2.56 25.6-2.56 10.24 0 17.92 0 23.04 2.56 5.12 2.56 7.68 5.12 10.24 10.24 2.56 5.12 0 10.24 0 20.48-2.56 10.24-5.12 17.92-7.68 28.16L588.8 747.52h84.48l48.64-158.72c7.68-28.16 7.68-51.2-2.56-66.56zM153.6 555.52c10.24-2.56 23.04-5.12 35.84-5.12 15.36 0 30.72 2.56 46.08 7.68s28.16 10.24 35.84 17.92h7.68l17.92-58.88c-10.24-5.12-23.04-7.68-38.4-10.24-17.92-2.56-35.84-5.12-53.76-5.12-40.96 0-76.8 7.68-104.96 23.04-28.16 15.36-46.08 33.28-51.2 56.32-5.12 17.92-2.56 33.28 5.12 43.52 7.68 12.8 23.04 20.48 46.08 25.6 7.68 2.56 17.92 2.56 28.16 5.12 10.24 2.56 17.92 2.56 23.04 5.12 12.8 2.56 20.48 5.12 25.6 7.68 5.12 2.56 5.12 7.68 2.56 12.8s-7.68 10.24-15.36 15.36c-7.68 2.56-20.48 5.12-38.4 5.12-12.8 0-23.04 0-33.28-2.56s-20.48-5.12-28.16-7.68c-10.24-2.56-15.36-7.68-20.48-10.24-5.12-2.56-7.68-5.12-12.8-7.68H17.92L0 729.6c10.24 5.12 23.04 10.24 40.96 12.8s38.4 5.12 61.44 5.12c43.52 0 76.8-7.68 107.52-23.04 28.16-15.36 46.08-33.28 53.76-58.88 5.12-15.36 2.56-30.72-2.56-40.96-7.68-10.24-20.48-17.92-40.96-23.04-10.24-2.56-17.92-5.12-28.16-5.12-10.24-2.56-17.92-2.56-25.6-5.12-15.36-2.56-23.04-5.12-28.16-7.68-2.56-2.56-5.12-7.68-2.56-12.8 0-7.68 7.68-12.8 17.92-15.36z" fill="" p-id="24169"></path><path d="M389.12 509.44c120.32 2.56 309.76-61.44 263.68-202.24-2.56-10.24-7.68-17.92-10.24-25.6-2.56-12.8 7.68-23.04 20.48-40.96 7.68-10.24 15.36-20.48 15.36-30.72 0-5.12-5.12-12.8-17.92-10.24-17.92 5.12-40.96 17.92-58.88 30.72-12.8 10.24-23.04 17.92-33.28 12.8-15.36-5.12 7.68-43.52 12.8-53.76 10.24-15.36 12.8-35.84-10.24-30.72-23.04 5.12-40.96 23.04-61.44 43.52-10.24 10.24-20.48 25.6-33.28 28.16-25.6 5.12-12.8-30.72-7.68-46.08 7.68-20.48 12.8-38.4 0-40.96-28.16-5.12-53.76 28.16-69.12 51.2-10.24 12.8-28.16 51.2-46.08 40.96-7.68-5.12 0-30.72-2.56-43.52s-20.48-2.56-28.16 12.8c-7.68 12.8-12.8 23.04-17.92 38.4-2.56 7.68-10.24 33.28-23.04 28.16-10.24-2.56-7.68-20.48-7.68-28.16 0-5.12 0-10.24-2.56-12.8-5.12-5.12-15.36 5.12-25.6 20.48-10.24 20.48-20.48 51.2-20.48 53.76-76.8 148.48 56.32 202.24 163.84 204.8zM256 386.56c10.24-51.2 79.36-94.72 161.28-99.84 87.04-5.12 161.28 35.84 153.6 94.72-5.12 58.88-89.6 107.52-181.76 104.96-84.48-2.56-140.8-48.64-133.12-99.84z" fill="#F60907" p-id="24170"></path><path d="M473.6 327.68h-130.56c-5.12 0-12.8 5.12-12.8 12.8v17.92l76.8 30.72 76.8-30.72v-17.92c2.56-7.68-2.56-12.8-10.24-12.8z" fill="" p-id="24171"></path><path d="M332.8 368.64v69.12c0 5.12 5.12 12.8 12.8 12.8h130.56c5.12 0 12.8-5.12 12.8-12.8v-69.12l-76.8 30.72-79.36-30.72z" fill="" p-id="24172"></path></svg>