<?xml version="1.0" standalone="no"?><!DOCTYPE svg PUBLIC "-//W3C//DTD SVG 1.1//EN" "http://www.w3.org/Graphics/SVG/1.1/DTD/svg11.dtd"><svg t="1731398311305" class="icon" viewBox="0 0 1024 1024" version="1.1" xmlns="http://www.w3.org/2000/svg" p-id="6949" xmlns:xlink="http://www.w3.org/1999/xlink" width="48" height="48"><path d="M900.3 942.5H123c-31.2 0-56.7-25.5-56.7-56.7v-751c0-31.2 25.5-56.7 56.7-56.7h777.3c31.2 0 56.7 25.5 56.7 56.7v750.9c0 31.2-25.5 56.8-56.7 56.8z" fill="#2BBC39" p-id="6950"></path><path d="M738.2 195.4l53.7 120.2S602.7 290 454.4 341.2s-56.3 107.4-56.3 107.4 120.2 12.8 232.7 0 222.5 30.7 240.4 71.6c17.9 40.9 58.8 140.6-74.2 230.1S446.7 870.5 265.2 855.1l-48.6-117.6s204.3 28.1 337.4-25.6 81.9-94.6 81.9-94.6-10.2-40.9-268.5-2.6-248-163.7-248-163.7 2.6-127.9 209.7-196.9 409.1-58.7 409.1-58.7z" fill="#1F7F28" p-id="6951"></path><path d="M738.2 164.2l53.7 120.2S602.7 258.8 454.4 310s-56.3 107.4-56.3 107.4 120.2 12.8 232.7 0 222.5 30.7 240.4 71.6c17.9 40.8 58.8 140.5-74.2 230S446.7 839.2 265.2 823.9l-48.6-117.6s204.3 28.1 337.4-25.6c133.1-53.7 81.9-94.6 81.9-94.6s-10.2-40.9-268.5-2.6-248-163.7-248-163.7S122 292 329.1 223s409.1-58.8 409.1-58.8z" fill="#FFFFFF" p-id="6952"></path></svg>