<?xml version="1.0" standalone="no"?><!DOCTYPE svg PUBLIC "-//W3C//DTD SVG 1.1//EN" "http://www.w3.org/Graphics/SVG/1.1/DTD/svg11.dtd"><svg t="1731397766699" class="icon" viewBox="0 0 1024 1024" version="1.1" xmlns="http://www.w3.org/2000/svg" p-id="7270" xmlns:xlink="http://www.w3.org/1999/xlink" width="48" height="48"><path d="M521.024 82.112c-244.224 0-442.176 197.952-442.176 442.176S276.8 966.464 521.024 966.464 963.2 768.512 963.2 524.288 765.248 82.112 521.024 82.112zM301.056 622.656l-31.232 0.256-31.36 0.32-34.24-90.688c-18.816-49.92-34.368-91.264-34.624-91.712-0.256-0.576 13.248-1.024 29.824-1.024h30.208l4.032 12.992c2.304 7.232 11.392 36.352 20.224 64.704 8.96 28.352 16.384 51.072 16.704 50.496 0.32-0.576 9.408-29.632 20.224-64.704l19.52-63.488h58.624l-2.304 6.016c-1.28 3.392-16.512 44.608-33.92 91.52l-31.68 85.312z m210.688-20.672l-0.32 20.672H358.08l0.32-4.096c0.704-6.144 4.672-18.24 9.152-27.392 8.384-17.408 24.64-34.112 56.896-58.752 29.248-22.4 37.632-34.368 32.768-47.04-2.688-7.168-11.584-12.992-19.968-13.12-5.12 0-11.968 2.56-15.552 6.016-2.88 2.816-7.296 13.376-7.296 17.792 0 1.536-0.32 3.008-0.832 3.264-1.28 0.832-50.176-3.264-51.072-4.16-1.408-1.408 1.984-16.128 5.696-25.088 7.168-17.152 22.976-28.544 44.48-32.064 14.72-2.432 43.328-1.536 55.488 1.6 18.112 4.736 30.08 14.016 36.928 28.544 7.872 16.576 5.824 38.08-5.12 54.656-7.104 10.944-19.712 22.08-45.504 40.32-5.12 3.712-12.16 9.152-15.68 12.416l-6.4 5.696 39.808 0.128h39.744l-0.192 20.608z m329.152 21.248h-32.384l-17.28-28.416c-9.664-15.68-17.792-28.352-18.24-28.096-0.576 0.128-8.576 12.8-18.112 28.096l-17.216 27.84-107.072 0.32-107.072 0.256V439.744h152.128v39.488H580.48v27.84l43.904 0.256 43.776 0.32 0.384 18.816 0.256 18.944-43.776 0.256-43.904 0.32V580.8l48.448 0.32 48.448 0.256 0.32 16.512 0.32 16.384 28.352-42.624c15.552-23.424 28.352-43.2 28.352-44.032 0-0.832-12.544-20.672-27.968-44.096-15.424-23.552-28.096-43.072-28.096-43.328 0-0.256 14.272-0.448 31.68-0.448h31.552l15.552 27.264c8.576 14.848 16 26.944 16.384 26.688 0.448-0.32 7.552-12.544 15.68-27.264l14.976-26.688h31.104c17.088 0 31.104 0.256 31.104 0.576 0 0.32-12.544 20.224-27.84 44.096-15.296 23.808-27.84 43.648-27.84 44.096 0 0.32 13.504 21.12 29.952 46.208 16.512 25.088 30.4 46.208 30.912 46.912 0.512 1.216-6.08 1.6-31.616 1.6z" p-id="7271"></path></svg>