<?xml version="1.0" standalone="no"?><!DOCTYPE svg PUBLIC "-//W3C//DTD SVG 1.1//EN" "http://www.w3.org/Graphics/SVG/1.1/DTD/svg11.dtd"><svg t="1731400594506" class="icon" viewBox="0 0 1024 1024" version="1.1" xmlns="http://www.w3.org/2000/svg" p-id="37298" xmlns:xlink="http://www.w3.org/1999/xlink" width="48" height="48"><path d="M964.080082 59.929135A197.365027 197.365027 0 0 0 819.192138 0.028466H204.826297a197.109041 197.109041 0 0 0-144.887944 59.900669A195.931506 195.931506 0 0 0 0.037683 204.817079v614.365842a197.928195 197.928195 0 0 0 59.90067 144.887944A197.109041 197.109041 0 0 0 204.826297 1023.971534h614.365841a204.532628 204.532628 0 0 0 204.788614-204.788613V204.817079a197.109041 197.109041 0 0 0-59.90067-144.887944m-357.100145 30.974278a133.112599 133.112599 0 0 1 73.21193-0.511972q33.585333 9.010699 78.331644 38.909837a43.312792 43.312792 0 0 1 20.222876 31.998221 48.483704 48.483704 0 0 1-11.007388 35.838007 45.463072 45.463072 0 0 1-31.998221 17.919004 58.006375 58.006375 0 0 1-37.373922-10.239431 146.270267 146.270267 0 0 0-39.93378-19.966889q-23.294705-6.706827-38.65385 6.143658t-12.799289 36.86195a171.76645 171.76645 0 0 0 5.119716 28.158435l7.679573 27.902448a11.263374 11.263374 0 0 0 4.607743 5.631687 15.359146 15.359146 0 0 0 7.167602 2.815844 257.624076 257.624076 0 0 1 133.880556 48.893281 295.253984 295.253984 0 0 1 96.250649 113.145709 298.069827 298.069827 0 0 1 31.99822 153.591461q-5.119715 88.827061-59.900669 170.998492a344.147265 344.147265 0 0 1-110.585851 105.466136 377.323021 377.323021 0 0 1-142.328087 50.173211 388.279212 388.279212 0 0 1-152.567517-7.679573A370.309011 370.309011 0 0 1 287.253714 858.604729 401.641669 401.641669 0 0 1 368.657188 172.306887a112.019372 112.019372 0 0 1 46.077438-10.751402 37.681105 37.681105 0 0 1 26.878506 12.799288 48.995676 48.995676 0 0 1 13.055274 27.902449 43.722369 43.722369 0 0 1-5.119716 28.926391 54.268983 54.268983 0 0 1-22.270761 20.990833l-42.749623 22.014776a238.527538 238.527538 0 0 0-39.93378 25.086605Q269.385907 360.507623 241.688247 438.788071q-27.646463 79.099602-5.119715 172.278421t81.147488 149.495688Q377.872676 819.182921 470.539523 836.589953a286.704059 286.704059 0 0 0 176.374194-20.478862 247.384645 247.384645 0 0 0 130.552741-134.648513q33.585333-80.379531 9.727459-154.871389-25.137802-77.563687-105.466136-121.59324a87.854315 87.854315 0 0 0-15.359146-6.143658c-10.597811-3.583801-16.024709-5.478095-16.383089-5.631687q5.119715 21.502804 15.359146 62.204541 8.703516 36.093993 12.799288 60.412642 12.287317 72.443972-31.230263 125.433025a163.011737 163.011737 0 0 1-98.298535 57.084827 152.055546 152.055546 0 0 1-116.985495-26.110549 164.138074 164.138074 0 0 1-68.604186-102.394307q-19.198933-84.987275 18.686961-155.895332T501.257815 311.81913l22.782734-8.959502c-5.119715-19.454918-8.857108-34.148501-11.775346-44.029552a129.170418 129.170418 0 0 1-0.767957-73.211929 132.54943 132.54943 0 0 1 35.326036-59.388698 139.000272 139.000272 0 0 1 60.156655-35.326036M454.156434 510.464085a104.390996 104.390996 0 0 0 16.383089 66.044328 66.044328 66.044328 0 0 0 28.41442 23.294705 61.436584 61.436584 0 0 0 35.838008 2.047886q39.370611-9.727459 43.773566-50.685182a135.211682 135.211682 0 0 0-1.023943-41.469694q-3.276618-15.359146-28.158434-112.121766a142.481678 142.481678 0 0 0-71.676015 46.58941 112.633738 112.633738 0 0 0-23.550691 66.300313z" fill="#E82202" p-id="37299"></path></svg>