<?xml version="1.0" standalone="no"?><!DOCTYPE svg PUBLIC "-//W3C//DTD SVG 1.1//EN" "http://www.w3.org/Graphics/SVG/1.1/DTD/svg11.dtd"><svg t="1731401651504" class="icon" viewBox="0 0 1024 1024" version="1.1" xmlns="http://www.w3.org/2000/svg" p-id="41157" xmlns:xlink="http://www.w3.org/1999/xlink" width="48" height="48"><path d="M5.12 5.12h110.08v176.64h222.72V5.12h110.08v465.92h-110.08v-176.64H5.12V5.12z m112.64 657.92v66.56h222.72v-66.56H117.76z m565.76 0v66.56h222.72v-66.56h-222.72z m-110.08-112.64h445.44v465.92H573.44v-110.08h332.8v-66.56h-332.8V550.4z m-568.32 0h445.44v465.92H5.12v-110.08h332.8v-66.56H5.12V550.4zM573.44 5.12h445.44v465.92H573.44v-110.08h332.8v-66.56h-332.8V184.32h332.8V117.76h-332.8V5.12z" fill="#F08300" p-id="41158"></path></svg>