<?xml version="1.0" standalone="no"?><!DOCTYPE svg PUBLIC "-//W3C//DTD SVG 1.1//EN" "http://www.w3.org/Graphics/SVG/1.1/DTD/svg11.dtd"><svg t="1731496060561" class="icon" viewBox="0 0 1024 1024" version="1.1" xmlns="http://www.w3.org/2000/svg" p-id="2293" xmlns:xlink="http://www.w3.org/1999/xlink" width="48" height="48"><path d="M965.964 466.773C848.801 349.59 731.617 232.47 614.561 115.243c-17.13-16.811-33.216-36.011-55.808-45.654-22.442-10.666-48.426-12.16-72.533-7.04-21.077 4.843-40.128 16.406-55.36 31.616C299.148 225.92 167.393 357.696 35.617 489.387c-15.146 15.146-27.008 34.048-31.85 55.082-10.816 37.867 2.773 80.299 30.506 107.542 92.864 92.928 185.814 185.706 278.635 278.677a110.912 110.912 0 0 0 79.659 33.11c75.968 0.426 151.936-0.043 227.84 0.255 34.176 2.176 68.757-10.026 92.95-34.517 84.138-83.925 168.063-168.128 252.16-252.096 13.716-13.888 28.564-26.901 39.722-43.03 20.501-29.525 23.893-69.29 11.925-102.74-9.365-26.838-31.787-45.355-51.2-64.897z" fill="#1FB446" p-id="2294"></path><path d="M308.215 616.363c-14.294 17.024-39.467 12.565-58.816 9.557-17.067-13.675-32.662-29.525-46.422-46.443-7.957-9.365 2.22-19.157 8.534-25.749 86.656-86.272 173.013-172.928 259.498-259.35 11.627-11.306 22.144-23.893 35.2-33.6 11.222-5.61 19.904 6.55 27.392 13.014 15.894 16.939 33.92 32 48.512 50.133 7.531 9.003-0.725 19.414-7.317 25.856-88.96 88.768-177.92 177.536-266.581 266.582z m272.682 204.48c-13.824 15.53-28.266 30.805-44.5 43.776-14.892 3.605-30.72 2.773-45.804 0.597-14.506-7.339-24.298-21.419-36.16-32.256-8.448-8.235-21.674-20.587-10.773-32.47a845.419 845.419 0 0 1 58.325-58.453c7.574-6.357 18.86-3.2 24.96 3.734a1921.707 1921.707 0 0 1 51.243 51.328c6.613 5.866 10.176 16.96 2.71 23.744z m-5.184-232.896c-49.344 49.301-98.837 98.517-147.904 148.117-13.78 16.875-37.994 11.52-56.917 9.963-18.176-11.712-32.32-29.014-46.976-44.779-9.75-9.237-0.64-21.333 6.89-28.288 49.409-49.216 98.753-98.432 147.905-147.925 8.96-8.726 17.066-18.774 27.925-25.387 10.859-4.672 18.816 6.4 26.027 12.587 16.426 17.6 35.157 33.109 50.133 51.968 6.592 8.384-1.067 17.792-7.083 23.765z" fill="#FFFFFF" p-id="2295"></path></svg>