<?xml version="1.0" standalone="no"?><!DOCTYPE svg PUBLIC "-//W3C//DTD SVG 1.1//EN" "http://www.w3.org/Graphics/SVG/1.1/DTD/svg11.dtd"><svg t="1731404157954" class="icon" viewBox="0 0 1024 1024" version="1.1" xmlns="http://www.w3.org/2000/svg" p-id="14629" xmlns:xlink="http://www.w3.org/1999/xlink" width="48" height="48"><path d="M203.776 600.064l-24.576-3.584-3.072 7.68c-7.168 19.968-16.384 34.304-40.96 49.664-10.752 7.168-13.312 14.848-13.312 19.968 0 9.728 8.704 19.968 22.528 19.968 43.52 0 57.344-82.944 57.344-83.456l2.048-10.24zM354.816 594.432l-8.704-4.096-11.264 20.48 6.656 5.632c20.992 17.408 33.792 34.304 44.032 58.368 4.096 9.728 8.704 17.408 20.48 17.408 11.264 0 19.456-10.752 19.456-26.624 0-4.608-0.512-10.24-3.072-15.872-10.752-25.088-50.688-47.104-67.584-55.296z" p-id="14630"></path><path d="M366.08 549.888h93.184c14.336 0 14.336-10.752 14.336-11.776 0-5.632-3.584-9.216-7.168-12.8l-29.696-31.232-23.04 28.16H257.024c0.512-0.512 1.536-0.512 1.536-1.024 4.096-1.024 12.8-3.072 12.8-12.288 0-2.56-1.024-5.12-2.56-7.168h87.04c0.512 9.728 3.072 16.384 13.312 16.384 5.12 0 28.672-6.144 28.672-22.528 0-1.024 0-3.584-1.024-11.776-0.512-7.168-1.536-18.944-1.536-21.504v-39.936l2.56-1.536c3.072-2.048 9.728-5.632 9.728-13.312s-6.144-11.776-9.216-14.336l-28.16-18.432H455.68c9.216 0 14.336-6.144 14.336-12.288 0-5.632-3.584-9.728-7.168-12.8l-34.816-33.792-20.992 30.72H340.992v-10.24c8.192-4.608 12.288-8.192 12.288-15.36 0-8.192-7.168-11.776-12.288-14.336L298.496 286.72l1.536 16.896c1.024 9.728 1.024 17.408 1.024 28.16v13.824H243.712v-7.168c9.728-6.656 12.288-9.216 12.288-15.872 0-8.192-7.168-11.776-12.288-14.336l-42.496-19.968 1.536 17.408c1.024 9.728 1.024 17.408 1.024 28.16v11.776H108.032c-7.68 0-15.872 0-29.184-1.024L45.056 343.04l45.056 34.816 4.608-1.024c7.68-1.536 12.8-2.56 18.944-2.56h30.72l1.024 12.8c1.024 13.312 1.024 34.304 1.024 44.032v33.792c0 5.632-0.512 12.8-1.024 19.968-0.512 7.68-1.024 15.36-1.024 20.992 0 10.24 4.608 14.336 8.192 15.872H100.864c-7.68 0-15.872 0-29.184-1.024l-33.792-2.048 45.056 34.816 4.608-1.024c7.68-1.536 12.8-2.56 18.944-2.56H174.08c-30.208 29.696-69.12 58.368-111.104 82.944l-8.192 4.608 11.264 22.528 8.704-3.584c51.2-20.992 108.032-60.928 152.576-106.496h12.288v123.392h-2.56c-8.192 0-21.504-2.048-40.96-6.656l-11.264-2.56-3.584 27.136 8.704 2.048c31.232 8.192 34.816 13.312 38.4 21.504l0.512 0.512c1.536 2.56 4.608 9.728 12.8 9.728 2.56 0 4.608-1.024 6.656-1.536h1.024c27.136-12.8 30.208-25.6 30.208-51.2v-60.416l5.12 6.144c16.896 19.456 27.648 45.568 30.208 58.368 1.536 6.144 4.608 20.48 19.456 20.48 12.288 0 21.504-12.288 21.504-28.672 0-26.624-37.888-57.344-54.272-69.12l-7.68-5.632-14.336 18.432v-28.672l1.024-0.512c3.072-2.048 10.752-7.168 10.752-14.848 0-6.144-4.096-11.264-12.8-14.848l-4.096-2.048h50.176c50.176 59.904 102.4 81.92 109.568 81.92 3.584 0 8.192-1.024 12.288-6.144 7.168-8.704 11.264-10.752 28.16-11.264h10.24v-25.088l-9.216-1.024c-43.008-5.12-73.728-12.8-109.568-39.424z m-23.552-167.424c0-1.024 0-2.048-0.512-8.192H363.52l-11.776 18.432h-12.288c1.536-2.56 3.072-5.632 3.072-10.24z m-97.792-8.192h56.32V384c0 3.584 0.512 6.144 1.024 8.704H243.712c1.024-2.048 1.536-4.608 1.536-7.168 0-2.048 0-5.632-0.512-11.264z m111.104 46.592v10.752h-168.96v-10.752h168.96z m-152.064-46.592v12.8c0 2.048 0 4.096 0.512 5.632h-20.992l-26.624-18.432h47.104z m-2.56 147.456h-35.84c2.048-0.512 3.584-1.024 5.632-2.048 11.264-4.608 13.824-10.24 14.848-18.432h32.256c-4.608 6.144-10.24 13.312-16.896 20.48z m-14.848-49.152v-12.8h168.96v12.8h-168.96zM572.928 382.976c3.072 13.312 5.632 26.112 19.456 26.112 14.848 0 27.136-14.848 27.136-32.768 0-23.552-23.04-42.496-68.096-71.68l-8.192-5.12-13.824 19.456 5.632 6.144c23.04 24.576 34.304 41.984 37.888 57.856zM665.088 588.288l6.656-6.144-14.336-21.504-61.952 45.568V478.72l11.776-7.168c7.168-4.608 8.192-10.24 8.192-13.824 0-4.608-2.048-9.216-6.656-13.312l-32.768-29.184-17.92 24.576-33.792 3.072c-3.072 0.512-6.144 0.512-9.728 0.512-4.096 0-8.192 0-13.824-0.512l-23.552-3.584 27.648 39.424 7.168-2.048c8.192-2.56 15.36-3.072 26.624-4.608l16.384-1.536v144.384c0 11.264-0.512 15.36-16.384 27.648l-10.24 8.192 31.744 25.088c3.584 3.072 6.656 3.584 9.216 3.584s8.192-1.024 12.288-8.192c8.704-13.824 26.624-32.256 83.456-82.944z" p-id="14631"></path><path d="M903.68 640.512h-1.536c-28.16 0-71.68-30.72-99.84-83.456h91.648c10.24 0 14.336-6.656 14.336-12.8 0-5.12-3.072-9.216-5.632-12.288l-28.672-34.304-25.088 29.184h-68.608v-36.864h46.592v7.68c0 14.848 9.216 16.896 13.312 16.896s7.68-1.536 13.824-4.608c8.704-4.608 14.336-8.704 14.336-20.48v-7.168c-0.512-13.312-0.512-25.6-0.512-50.688V359.424l8.192-6.656c5.632-4.096 6.656-8.704 6.656-12.288s-1.024-8.192-6.656-12.288l-35.328-27.648-15.36 23.552h-132.608l-40.448-32.256 1.536 23.04c1.024 12.8 1.024 25.6 1.024 35.84v88.576c0 19.456 0 34.304-1.024 49.152v2.56c0 1.024-0.512 2.56-0.512 3.584 0 16.896 12.288 17.408 14.336 17.408 8.192 0 26.624-6.656 27.648-22.528h44.544v36.864h-81.408c-9.728 0-19.968-1.024-30.72-1.536l-22.528-2.048 30.72 40.448 7.168-3.072c5.632-2.048 16.384-4.096 25.088-4.096h39.936c-18.944 38.912-59.904 83.456-108.544 116.736l-9.216 6.144 16.384 19.968 7.68-4.096c60.416-33.792 97.28-75.264 125.952-116.736v54.784c0 17.408 0 36.864-1.024 58.368v5.632c0 15.872 11.264 16.896 13.312 16.896 4.608 0 8.704-2.048 13.824-5.12 8.192-5.12 15.872-9.216 15.872-21.504 0-4.608 0-16.384-0.512-28.16 0-10.752-0.512-21.504-0.512-25.088V583.68c27.648 56.832 72.192 95.744 82.944 95.744 3.072 0 7.68-1.024 12.288-7.168 0.512-1.024 5.12-5.632 27.648-5.632h10.24V640l-10.752 0.512z m-122.88-286.208h46.592v39.424h-46.592v-39.424z m0 69.12h46.592v36.864h-46.592v-36.864z m-40.448 36.864h-44.544v-36.864h44.544v36.864z m0-66.56h-44.544v-39.424h44.544v39.424z" p-id="14632"></path></svg>