<?xml version="1.0" standalone="no"?><!DOCTYPE svg PUBLIC "-//W3C//DTD SVG 1.1//EN" "http://www.w3.org/Graphics/SVG/1.1/DTD/svg11.dtd"><svg t="1731472744537" class="icon" viewBox="0 0 1024 1024" version="1.1" xmlns="http://www.w3.org/2000/svg" p-id="2702" xmlns:xlink="http://www.w3.org/1999/xlink" width="48" height="48"><path d="M191.62798 282.714142l40.831728 15.704511-6.281804 12.563609q21.986315 9.422706 6.281804 18.845413l3.140902 9.422706 9.422706-3.140902-25.127217 9.422707-6.281804 21.986315q15.704511 9.422706-6.281804 18.845413l-12.563609 37.690826v12.563608q-23.242676 52.138976-12.563609 138.199695l37.690826 94.227065 37.690826 53.395337 18.845413 9.422706q-4.397263 14.44815 9.422707 9.422707l28.268119 21.986315 3.140902 15.704511 6.281804-12.563609 12.563609 18.845413q16.332691-4.397263 9.422707 12.563608l-12.563609 3.140903 3.140902 9.422706q-18.845413-5.653624-9.422706 21.986315v12.563609l-12.563609 25.127217 9.422706 3.140902 12.563609-6.281804-3.140902 9.422706q6.909985 20.729954-9.422707 15.704511l-12.563608 6.281805v-12.563609l-28.26812-15.704511 3.140903-9.422706-12.563609 6.281804L194.768882 800.962999q-53.395337-62.818043-81.663456-150.763304 3.769083-38.319006-12.563609-56.536239v-150.763304L131.950839 345.532186l15.704511-6.281805 9.422706 3.140902-6.281804-12.563608h12.563608l-6.281804-18.845413 3.140902-15.704511 31.409022-12.563609zM175.923469 295.277751v6.281804h12.563609l-12.563609-6.281804z m12.563609 6.281804v12.563609q-12.563609 6.281804 6.281804 12.563609l12.563609-6.281805q6.281804-31.409022-18.845413-18.845413z m37.690826 12.563609l-6.281805 18.845413h6.281805v-18.845413zM163.35986 577.958945v56.536239l-12.563608-12.563608q6.281804-25.127217-6.281805-18.845413v31.409021l-6.281804-12.563608h-6.281804q-6.281804 37.690826 18.845413 43.97263l-6.281805 12.563608 6.281805 43.972631h6.281804l-6.281804-18.845413 6.281804-25.127218 6.281804 25.127218v-31.409022h12.563609v31.409022q18.845413 6.281804 12.563609-6.281805h6.281804l-6.281804 12.563609 6.281804 25.127217h-6.281804v-18.845413l-25.127218-12.563608 6.281805 37.690826 6.281804-18.845413v12.563608q18.845413 6.281804-6.281804 18.845413l18.845413 6.281805 6.281804-18.845413 6.281804 25.127217-18.845413 6.281804 31.409022 12.563609q18.845413 6.281804 12.563609 31.409021l25.127217-12.563608-6.281805 25.127217 12.563609 6.281804q12.563609 6.281804 6.281804-6.281804l6.281805-12.563609q-18.845413 6.281804-12.563609-6.281804l6.281804-12.563609q-25.127217 6.281804-12.563608-18.845412h-25.127217l-6.281805-12.563609q6.281804-31.409022-18.845413-18.845413v-18.845413l25.127218 12.563609 6.281804-12.563609q12.563609 6.281804 0 18.845413l6.281804 25.127217 25.127217-6.281804q25.127217-6.281804 12.563609 18.845413 25.127217 6.281804 31.409022-12.563609l-31.409022-18.845413-25.127217 6.281805 6.281804-12.563609 12.563609 6.281804v-12.563608l-37.690826-37.690826-12.563609 6.281804q-18.845413 6.281804-12.563608-6.281804h12.563608l6.281805-12.563609h-6.281805l-6.281804-12.563609-6.281804 12.563609h-6.281805l6.281805-12.563609-6.281805-25.127217-25.127217 12.563609 12.563609-18.845413v-18.845413l-6.281805 12.563609-18.845413-62.818044z m-37.690826 50.254435l-6.281804 25.127217h6.281804v-25.127217z m6.281805 25.127217v12.563609q-6.281804 12.563609 12.563608 6.281804l-6.281804-6.281804q6.281804-18.845413-6.281804-12.563609z m157.045108 163.326912l-6.281805 18.845413q12.563609 18.845413 18.845413 0 6.281804-25.127217-12.563608-18.845413z m-12.563609 18.845413l-12.563609 12.563609 18.845413 6.281804q6.281804-25.127217-6.281804-18.845413zM229.318806 351.81399l6.281804 12.563609-6.281804-12.563609zM6.314752 414.632033l25.127218 6.281804-3.140903 12.563609L6.314752 427.195642v-12.563609zM53.428285 433.477446l12.563608 6.281804 9.422707-3.140902q8.166346 23.870856-15.704511 15.704511l-6.281804-18.845413zM992.55803 496.295489l25.127218 9.422707-25.127218 9.422706v-18.845413zM989.417128 590.522554l3.140902 15.704511h-6.281804l3.140902-15.704511z" fill="#9228E2" p-id="2703"></path><path d="M166.500762 640.776989l3.140903 15.70451-12.563609 6.281805 9.422706-21.986315zM882.626455 816.667509q14.44815-4.397263 9.422706 9.422707l125.636087 91.086163v97.367966l-3.140903 3.140903h-408.31728l-9.422707 3.140902-25.127217-37.690826q206.671362-32.037202 310.949314-166.467815z" fill="#9228E2" p-id="2704"></path><path d="M9.455655 0.032948L948.5854 3.17385l-326.653824 6.281805 9.422706 15.70451-34.549924 3.140902 75.381652 6.281805-56.536239 6.281804q47.741713-3.769083 72.24075 15.704511l12.563609-6.281804v6.281804l-21.986316 9.422706 18.845413 12.563609 3.140903 9.422707 6.281804-12.563609 3.140902 9.422706-6.281804 15.704511 15.704511 6.281804 3.140902-12.563608 31.409021 3.140902-3.140902 21.986315 47.113532 18.845413v12.563609h12.563609q-6.909985 16.960872 9.422707 12.563608v-12.563608q17.589052 8.166346 3.140902 15.70451-4.397263 14.44815 9.422706 9.422707l21.986315 12.563609q-7.538165 18.845413 15.704511 12.563608-10.050887 11.307248 9.422707 21.986315l21.986315 28.26812 15.704511-6.281805 25.127217 47.113533q-14.44815 8.166346 3.140902 15.704511l6.281804-12.563609 3.140902 9.422706-6.281804 12.563609 15.704511 40.831728 9.422706-3.140902 3.140903 28.268119 18.845413-43.97263 9.422706 15.704511-12.563609 6.281804q12.563609 21.986315 25.127218-6.281804l3.140902-229.285858 3.140902 373.767357-15.704511-9.422706q-27.639939 9.422706-21.986315-9.422707l-18.845413-87.94526-31.409022-69.099848 6.281805-12.563608h-12.563609L873.203748 219.896099q-16.960872 6.909985-12.563608-9.422706-67.843487-76.638013-172.749619-116.21338l-100.508869-25.127217h-119.354282l-131.917891 37.690825L213.614295 191.62798 197.909784 213.614295 182.205273 223.037001 172.782567 238.741512q-16.332691-5.025443-9.422707 15.704511-33.921743 27.639939-43.97263 72.24075l-12.563609 3.140902 6.281805 15.704511-12.563609 3.140902 6.281804 12.563608-12.563608 18.845413-9.422707 47.113533-43.97263-18.845413h-12.563609l-18.845412-6.281805-9.422707 3.140903v-395.753672L9.455655 0.032948zM590.522554 12.596557v6.281804h12.563609l-12.563609-6.281804z m18.845413 37.690826v6.281804h18.845413l-18.845413-6.281804z m-43.97263 6.281804v6.281804h12.563608l-12.563608-6.281804z m427.162693 307.808412l-6.281804 25.127217h6.281804v-25.127217z m12.563609 18.845412l-6.281804 18.845413h6.281804v-18.845413zM1020.82615 50.287383l3.140902 47.113532h-6.281804l3.140902-47.113532z" fill="#EE92E6" p-id="2705"></path><path d="M829.231118 125.669034q20.729954-6.909985 12.563609 18.845413-20.729954 6.909985-12.563609-18.845413zM235.60061 201.050686l-6.281804 12.563609 6.281804-12.563609zM888.908259 201.050686l15.704511 3.140902-18.845413 12.563609 3.140902-15.704511zM932.880889 251.305121q14.44815-4.397263 9.422707 9.422706l6.281804 12.563609h-6.281804l-9.422707-21.986315zM976.85352 301.559555q18.845413-4.397263 9.422706 18.845413l-18.845413-9.422706 9.422707-9.422707zM248.164219 345.532186l-6.281805 12.563608 6.281805-12.563608zM97.400915 458.604663l3.140902 28.26812h-6.281804l3.140902-28.26812zM185.346175 477.450076l3.140903 21.986315h-6.281805l3.140902-21.986315zM185.346175 552.831728l3.140903 15.704511h-6.281805l3.140902-15.704511zM97.400915 559.113532l3.140902 15.704511h-6.281804l3.140902-15.704511zM983.135324 559.113532l3.140902 28.26812h-6.281804l3.140902-28.26812zM976.85352 596.804358l3.140902 15.704511h-6.281805l3.140903-15.704511zM951.726302 691.031423l3.140902 9.422707-9.422706 15.70451-3.140902-9.422706 9.422706-15.704511zM292.136849 741.285858l6.281804 12.563608-6.281804-12.563608zM926.599085 747.567662l-9.422706 15.704511-34.549924 53.395336 9.422706-15.70451 34.549924-53.395337zM185.346175 785.258488l6.281805 12.563608-6.281805-12.563608zM870.062846 822.949314l-37.690826 43.97263 37.690826-43.97263zM254.446023 854.358335l12.563609 18.845413-12.563609-18.845413zM1020.82615 854.358335l3.140902 21.986315h-6.281804l3.140902-21.986315zM279.57324 873.203748l6.281805 12.563609-6.281805-12.563609zM807.244803 879.485553l-6.281804 12.563608 6.281804-12.563608zM555.97263 973.712617l28.26812 3.140903-28.26812 3.140902v-6.281805z" fill="#EE92E6" p-id="2706"></path><path d="M486.872783 238.741512l34.549923 3.140902-34.549923 3.140902v-6.281804zM656.481499 263.868729l15.704511 3.140903-15.704511 3.140902v-6.281805zM687.890521 270.150534l34.549924 28.268119-15.704511-9.422706-15.704511-3.140902 3.140902-9.422707-6.281804-6.281804zM361.236696 282.714142l28.26812 3.140903-28.26812 3.140902v-6.281805zM310.982262 314.123164l-3.140902 9.422706-3.140903 9.422707-3.140902-9.422707 9.422707-9.422706zM763.272173 320.404968l21.986315 28.26812-25.127217-12.563609 6.281804 12.563609-9.422707-3.140902q-16.332691 5.025443-9.422706-15.704511h12.563609l3.140902-9.422707zM292.136849 326.686773l9.422706 15.70451q-12.563609 28.268119-25.127217 6.281805l15.704511-21.986315zM248.164219 370.659403l9.422706 15.704511h-6.281804l-3.140902-9.422707-9.422707 3.140902 9.422707-9.422706zM226.177904 389.504816l25.127217 15.704511h-12.563609l-6.281804 37.690825 3.140902 9.422707-9.422706-21.986315 6.281804-25.127217-6.281804-15.704511zM819.808412 389.504816l-6.281805 12.563608 6.281805-12.563608zM675.326912 420.913837l6.281805 12.563609-6.281805-12.563609zM210.473393 433.477446l9.422706 15.704511-12.563608-6.281805 3.140902-9.422706zM367.518501 433.477446l15.70451 3.140902-15.70451 3.140902v-6.281804zM398.927522 433.477446l-6.281804 12.563609 6.281804-12.563609zM329.827675 439.75925l3.140902 9.422707q-12.563609 23.242676-25.127217 12.563608l-3.140903 15.704511-9.422706-21.986315h12.563609l3.140902-9.422706 6.281804 12.563608 12.563609-18.845413zM669.045108 439.75925l6.281804 12.563609-6.281804-12.563609zM835.512922 439.75925q33.293563-11.307248 18.845413 34.549924h-6.281804l-12.563609-34.549924zM656.481499 446.041055q18.845413 9.422706 0 18.845413v-18.845413zM731.863151 446.041055l6.281804 12.563608-6.281804-12.563608zM411.491131 452.322859h12.563609l18.845412 6.281804 9.422707-3.140902-9.422707 15.704511-3.140902-12.563609-21.986315 6.281805-6.281804-12.563609z" fill="#F4F5F0" p-id="2707"></path><path d="M430.336544 464.886468l15.704511 28.268119-18.845413-12.563609 3.140902-15.70451zM750.708564 464.886468l-3.140902 9.422706 6.281804 18.845413-9.422706 15.704511-3.140902-9.422707 6.281804-12.563608-6.281804-12.563609 9.422706-9.422706zM621.931576 477.450076l12.563608 3.140902-3.140902 15.704511-9.422706-18.845413zM612.508869 496.295489l3.140902 9.422707-3.140902 15.70451-12.563609 6.281805 3.140903-9.422707 9.422706-21.986315zM731.863151 515.140902l-3.140902 9.422707 3.140902 9.422706 15.704511-6.281804-9.422707 18.845413-12.563608-6.281805 6.281804 18.845413q-13.81997 5.025443-9.422706-9.422706h-12.563609l6.281804-18.845413q-4.397263-13.81997 9.422707-9.422707l6.281804-6.281804zM750.708564 552.831728l15.704511 6.281804 6.281804 15.704511-12.563608 3.140902q6.909985-16.960872-9.422707-12.563608l-9.422706 3.140902 9.422706-15.704511zM775.835781 552.831728l15.704511 21.986315-12.563608-6.281804-3.140903-15.704511zM574.818043 559.113532l28.26812 15.704511h-12.563609l-3.140902 9.422707q-22.614496-6.909985-12.563609-25.127218z" fill="#F4F5F0" p-id="2708"></path><path d="M562.254435 577.958945q14.44815-4.397263 9.422706 9.422707L562.254435 577.958945zM599.94526 584.24075q14.44815-4.397263 9.422707 9.422706l9.422706-3.140902q20.729954-6.909985 15.704511 9.422706l-9.422706-3.140902-12.563609 6.281805-12.563609-18.845413zM430.336544 596.804358l15.704511 28.26812-12.563609 3.140902-3.140902-31.409022zM216.755197 603.086163l-3.140902 9.422706-3.140902 9.422707-3.140902-9.422707 9.422706-9.422706zM650.199695 603.086163l3.140902 12.563608 37.690826 15.704511-12.563609 6.281804 3.140903-9.422706-34.549924-15.704511 3.140902-9.422706zM304.700457 621.931576l6.281805 12.563608q-17.589052 4.397263-6.281805-12.563608zM782.117586 621.931576l9.422706 18.845413q-21.986315 6.909985-9.422706-18.845413zM232.459708 628.21338q30.780841-11.307248 18.845413 28.268119-9.422706 18.845413-18.845413 0l3.140902-9.422706-9.422706-3.140902 6.281804-15.704511zM411.491131 628.21338l15.704511 21.986315h-6.281805q5.025443-13.81997-9.422706-9.422706l-9.422707 3.140902 9.422707-15.704511zM650.199695 628.21338l6.281804 12.563609q-17.589052 4.397263-6.281804-12.563609zM700.45413 634.495184l-6.281805 12.563609 6.281805-12.563609zM760.131271 634.495184l12.563608 3.140902-12.563608 6.281805V634.495184zM304.700457 640.776989l6.281805 12.563608-6.281805-12.563608zM329.827675 640.776989q20.729954-6.909985 15.704511 9.422706l-9.422707-3.140902-12.563609 6.281804 6.281805-12.563608zM361.236696 640.776989l15.704511 3.140902-15.704511 3.140902v-6.281804zM750.708564 640.776989l-6.281804 12.563608 6.281804-12.563608zM813.526607 653.340597l-6.281804 12.563609 6.281804-12.563609zM267.009632 697.313227l34.549923 28.26812-21.986315-15.704511-12.563608-12.563609zM756.990368 703.595032h12.563609l9.422707 3.140902-15.704511 9.422706-6.281805-12.563608zM756.990368 722.440445l6.281805 12.563608-18.845413 6.281805 12.563608-18.845413zM135.091741 728.722249l15.704511 21.986315-12.563609-6.281804-3.140902-15.704511zM706.735934 747.567662l9.422706 3.140902-3.140902 15.704511h-12.563608l-18.845413 6.281804-3.140903-12.563608q21.358135 5.025443 28.26812-12.563609zM367.518501 753.849466l21.986315 9.422707-9.422707 3.140902-12.563608-6.281804-25.127218 6.281804v-6.281804l25.127218-6.281805zM574.818043 804.103901l21.986315 3.140902-21.986315 3.140902v-6.281804z" fill="#F4F5F0" p-id="2709"></path><path d="M468.02737 100.541817h69.099847l6.281805 6.281804h12.563608l37.690826-6.281804 37.690826 18.845413 62.818043 12.563609 18.845413 18.845413 31.409022 6.281804q20.729954 28.8963 59.677141 31.409022l62.818043 81.663456 18.845413 9.422706q-16.960872 11.307248 9.422706 21.986315 14.44815-4.397263 9.422707 9.422707V339.250381h12.563609q-9.422706 23.870856 9.422706 18.845413l3.140902 15.704511 18.845413 81.663456v81.663456l-9.422706-3.140902-18.845413-6.281804-28.26812 15.704511-3.140902 9.422706-3.140902-59.677141-25.127217-87.94526-47.113533-65.958946q-7.538165 14.44815-15.704511-3.140902l6.281805-6.281804-40.831728-40.831728-15.704511 6.281804q9.422706-23.870856-9.422707-18.845413l-15.70451-6.281804q6.909985-16.960872-9.422707-12.563609v12.563609l-15.704511-9.422707 12.563609-6.281804-15.704511-3.140902-9.422706 3.140902q5.025443-13.81997-9.422707-9.422707-5.025443-16.960872-31.409021-12.563608l-9.422707 3.140902 3.140902-9.422706-28.268119 6.281804q8.794526-25.127217-34.549924-12.563609l-6.281804-6.281804h-62.818043l-6.281805 6.281804-87.94526 6.281805-40.831728 18.845412-3.140902 12.563609-12.563609-6.281804-28.268119 21.986315-3.140903 9.422706h-12.563608L295.277751 292.136849 285.855045 307.84136q-13.81997-4.397263-9.422707 9.422706L235.60061 358.095794l-9.422706-3.140902 6.281804 12.563609-15.704511 21.986315-15.704511-9.422707 18.845413-6.281804-12.563608-18.845413h12.563608q-5.025443-16.332691 15.704511-9.422706l-3.140902-9.422707 6.281804-12.563609-12.563608-6.281804-3.140903 15.704511-3.140902-15.704511 12.563609-18.845413-40.831728-15.704511-21.986315 9.422707 37.690826 9.422706-9.422707 25.127218-15.704511-9.422707 6.281805-15.704511-25.127218-9.422706 47.113533-59.677141q14.44815 5.025443 9.422706-9.422707l28.26812-28.268119 40.831728-18.845413q-6.909985-16.960872 9.422706-12.563609l62.818043-31.409021 69.099848-12.563609 37.690826-18.845413zM942.303596 477.450076l-6.281805 18.845413h6.281805v-18.845413zM160.218958 301.559555l-3.140902 9.422707 6.281804 18.845413-9.422706 15.704511-15.704511-3.140903 21.986315-40.831728zM201.050686 395.78662l12.563609 3.140902-15.704511 28.26812-3.140902-9.422707 6.281804-21.986315zM15.737459 427.195642L56.569187 449.181957l-15.704511 3.140902-25.127217-25.127217zM348.673088 785.258488l50.254434 31.409021 122.495184 21.986316-6.281804 12.563608 18.845413 25.127217-6.281804 28.26812-25.127217 3.140902 15.70451 9.422707 18.845413-12.563609 21.986315 15.704511-6.281804 12.563608 12.563609 6.281805-15.704511 9.422706h-87.945261l-113.072477-31.409021-28.26812-21.986316 12.563609-3.140902 6.281804-21.986315-9.422706-3.140902-12.563609 6.281804 3.140902-9.422706 12.563609-25.127217-6.281804-28.26812 12.563608-3.140902-3.140902-9.422707q15.704511 4.397263 12.563609-12.563608zM279.57324 866.921944l21.986315 15.704511-9.422706-3.140902-12.563609-12.563609zM568.536239 979.994422l28.268119 34.549923-9.422706 3.140903-21.986315-21.986315 3.140902-15.704511z" fill="#5447EF" p-id="2710"></path><path d="M524.563609 238.741512l106.790673 12.563609 25.127217 18.845413q30.152661-4.397263 40.831728 9.422706-7.538165 17.589052-15.70451 3.140902l-31.409022 6.281805-25.127217-18.845413h-18.845413q-15.704511 34.549924-31.409022 6.281804-16.332691 4.397263-9.422706-12.563609h-21.986315L464.886468 248.164219l53.395336-3.140903 6.281805-6.281804z" fill="#FDFDFA" p-id="2711"></path><path d="M392.645718 263.868729h43.97263q16.960872 17.589052 56.536239 12.563609l12.563609 12.563609H571.677141q8.166346 23.242676-28.268119 12.563608l-31.409022 6.281805-9.422706-18.845413H405.209327l-12.563609 12.563608-3.140902-18.845413-31.409022 3.140903 12.563609 6.281804-25.127217 12.563608 6.281804 6.281805V402.068424l-12.563609 3.140903 3.140902 9.422706-18.845413-12.563609-3.140902 12.563609 12.563609 3.140902-12.563609 6.281805q4.397263-16.332691-12.563608-9.422707v-12.563609h-31.409022v-12.563608l25.127217-6.281805q6.909985-16.960872-9.422706-12.563608l-25.127217-6.281804v6.281804l9.422706 3.140902-18.845413 12.563609-3.140902-9.422707-3.140902 12.563609-12.563609-3.140902q21.986315-9.422706 6.281804-18.845413l34.549924-34.549924 12.563609 6.281804 9.422706-31.409021q29.52448 5.653624 43.972631-9.422707l-3.140903-9.422706 9.422707 3.140902 9.422706-15.704511 31.409022-12.563609zM706.735934 288.995947l9.422706 25.127217q-23.870856 7.538165-9.422706-25.127217zM750.708564 320.404968q14.44815-4.397263 9.422707 9.422707 12.563609 23.242676 25.127217 12.563608l-9.422707 21.986316q-25.127217 3.140902-28.268119-15.704511l12.563609-3.140902-9.422707-18.845413-6.281804 12.563608-3.140902-9.422706 9.422706-9.422707zM706.735934 332.968577l15.704511 34.549924-18.845413 3.140902 3.140902-37.690826zM800.962999 364.377599q16.332691-5.025443 9.422706 15.70451l3.140902 9.422707q-13.81997-4.397263-9.422706 9.422706 23.870856 20.729954 12.563608 72.24075 25.755398 10.679067 18.845413-15.704511h6.281805l12.563608 25.127217-18.845413 3.140903-9.422706 25.127217q-15.704511-6.281804-9.422707-34.549924l-18.845413-18.845413v-31.409021h12.563609l-9.422706-15.704511-21.986315-6.281805 21.986315-37.690825zM728.722249 383.223011q31.409022-5.025443 43.97263 15.704511l-47.113532 9.422707v-6.281805l9.422706-3.140902-6.281804-15.704511zM235.60061 395.78662l25.127217 12.563609 9.422707 3.140902q-27.011759 13.81997-25.127218 56.536239l15.704511 28.268119 9.422707 3.140902-25.127218 9.422707-12.563608 56.536239-21.986315 6.281804-15.704511-40.831728 15.704511-28.268119 15.704511-9.422707q-25.127217-6.281804-18.845413-43.97263l18.845413-12.563609 3.140902 9.422707 9.422706-40.831728h-12.563608l9.422706-9.422707zM694.172325 408.350229l6.281805 12.563608 12.563608-6.281804v18.845413l-28.268119 6.281804 3.140902-12.563608 12.563609 6.281804-9.422707-15.704511 3.140902-9.422706zM731.863151 414.632033q17.589052 8.166346 3.140902 15.704511l18.845413 18.845413-3.140902 9.422706q-13.81997-26.383578-28.268119-15.704511l9.422706-28.268119zM380.082109 420.913837l15.704511 3.140903q-13.191789 20.729954-15.704511-3.140903zM292.136849 427.195642q16.332691-5.025443 9.422706 15.70451l18.845413 6.281805h-12.563608l-3.140903 9.422706-9.422706-3.140902 6.281804 25.127217-3.140902 15.704511q-13.81997 5.025443-9.422706-9.422706l-6.281805-18.845413q-7.538165-32.665382 9.422707-40.831728zM354.954892 427.195642l6.281804 12.563608-6.281804-12.563608zM612.508869 452.322859l-3.140902 9.422706-3.140902 15.704511-3.140902-15.704511 9.422706-9.422706zM634.495184 452.322859l12.563609 3.140902-12.563609 6.281804V452.322859zM449.181957 471.168272l-6.281805 12.563609 6.281805-12.563609z" fill="#FDFDFA" p-id="2712"></path><path d="M197.909784 477.450076l3.140902 21.986315h-6.281804l3.140902-21.986315zM546.549924 502.577294l15.704511 6.281804 18.845413-6.281804v6.281804L552.831728 515.140902l6.281804 37.690826-12.563608-3.140902V502.577294zM848.076531 502.577294l12.563609 3.140902v56.536239h-6.281805l-6.281804-59.677141z" fill="#FDFDFA" p-id="2713"></path><path d="M581.099848 515.140902q14.44815-4.397263 9.422706 9.422707L581.099848 546.549924q10.050887-10.679067-9.422707-21.986315l9.422707-9.422707zM599.94526 515.140902l6.281805 12.563609-6.281805-12.563609zM731.863151 546.549924l15.704511 3.140902q-13.191789 20.729954-15.704511-3.140902zM756.990368 546.549924l47.113533 3.140902-47.113533 3.140902v-6.281804zM436.618348 552.831728l3.140902 15.704511-12.563608-6.281804 9.422706-9.422707zM813.526607 552.831728l9.422707 3.140902V603.086163q25.755398-10.679067 18.845413 15.70451l-18.845413 34.549924-12.563609 3.140902 3.140902 9.422707-9.422706-3.140902-9.422707 15.70451-3.140902-21.986315 3.140902-9.422706-9.422706-3.140902 18.845413-6.281805-3.140902-9.422706q26.383578 8.166346 15.70451-21.986315l-18.845413-9.422707q6.909985-16.960872-9.422706-12.563608v12.563608q-18.845413-9.422706 0-18.845413l15.704511-3.140902q-16.960872-10.679067 9.422706-21.986315zM436.618348 577.958945l9.422707 15.704511-12.563609-6.281804 3.140902-9.422707zM555.97263 584.24075l18.845413 6.281804 9.422707-3.140902-15.704511 9.422706-12.563609-12.563608zM298.418653 590.522554l-6.281804 12.563609 6.281804-12.563609zM210.473393 596.804358l3.140902 12.563609-12.563609-3.140902 9.422707-9.422707zM599.94526 596.804358l31.409022 12.563609 9.422707-3.140902 6.281804 34.549924h12.563608q-6.909985-16.960872 9.422707-12.563609v12.563609l9.422706 3.140902-12.563608 6.281804-3.140902-9.422706q-10.679067 23.870856-21.986315 3.140902 7.538165-28.8963-25.127218-15.704511-9.422706 23.242676 9.422707 18.845413v6.281804l-21.986315-15.704511q-4.397263-16.332691 12.563608-9.422706v-18.845413l-15.704511-12.563609zM257.586925 603.086163h25.127217v9.422706L263.868729 621.931576l-6.281804 43.97263-12.563609-3.140902 6.281805-34.549924-18.845413-3.140902 25.127217-3.140902v-18.845413zM317.264066 609.367967l6.281804 12.563609q-17.589052 4.397263-6.281804-12.563609zM298.418653 628.21338l9.422707 34.549924-6.281805 15.70451q-21.986315 6.909985-12.563608-40.831728l9.422706-9.422706zM442.900152 628.21338l3.140903 15.704511-9.422707 9.422706q-21.986315-12.563609 6.281804-25.127217zM380.082109 640.776989q23.870856-4.397263 28.26812 9.422706l-9.422707-3.140902-25.127217 6.281804 6.281804-12.563608zM753.849466 665.904206l12.563609 3.140902-12.563609 6.281804V665.904206z" fill="#FDFDFA" p-id="2714"></path><path d="M270.150534 678.467814l18.845413 9.422707-3.140902 21.986315-21.986316-15.704511 6.281805-15.704511zM788.39939 684.749619l9.422706 3.140902-21.986315 9.422706v-6.281804l12.563609-6.281804zM336.109479 697.313227l69.099848 6.281805 9.422706 9.422706v47.113533q32.665382-10.679067 25.127217 12.563608l-28.268119 6.281805q-9.422706-21.986315-18.845413-6.281805l-25.127217 6.281805-21.986315-9.422707 18.845413-6.281804q-28.8963 3.769083-37.690826-12.563609 5.025443-16.332691-15.704511-9.422706l-15.704511-9.422707q7.538165-20.101774 31.409022-15.704511l9.422706-18.845413z m28.26812 18.845413l-6.281805 6.281805q-18.845413-6.281804-12.563608 18.845413l18.845413 6.281804q18.845413 6.281804 25.127217-6.281804 12.563609-37.690826-25.127217-25.127218zM681.608717 697.313227q33.293563-9.422706 21.986315 18.845413l-21.986315 6.281805-21.986316-6.281805q-7.538165-18.845413 15.704511-12.563608l6.281805-6.281805zM738.144955 709.876836l28.26812 9.422707-53.395337 40.831728-3.140902-15.704511 12.563609-12.563609 15.70451-21.986315zM603.086163 728.722249q25.755398-8.166346 18.845413 12.563609-25.755398 8.166346-18.845413-12.563609zM637.636086 741.285858l50.254435 6.281804 9.422706 9.422706-18.845413 3.140903q6.909985 16.960872-9.422706 12.563608l-18.845413 12.563609-15.704511-6.281804 6.281805-28.26812-3.140903-9.422706zM411.491131 785.258488l6.281804 6.281804 84.804359 6.281804v12.563609h-37.690826l-3.140903-12.563609H408.350229l3.140902-12.563608zM612.508869 785.258488l21.986315 9.422706-28.268119 3.140902 6.281804-12.563608z" fill="#FDFDFA" p-id="2715"></path><path d="M486.872783 75.4146l15.704511 3.140902-15.704511 3.140902v-6.281804zM442.900152 81.696404l34.549924 3.140902-59.677141 9.422707v-6.281804l25.127217-6.281805zM562.254435 81.696404l47.113532 3.140902-47.113532 3.140903v-6.281805zM618.790673 87.978209l15.704511 3.140902-15.704511 3.140902v-6.281804zM681.608717 106.823621l28.268119 9.422707-9.422706 3.140902-18.845413-6.281804v-6.281805zM317.264066 125.669034l15.704511 3.140903-15.704511 3.140902v-6.281805zM725.581347 125.669034l21.986315 9.422707-9.422707 3.140902-12.563608-12.563609zM304.700457 131.950839l6.281805 12.563608-15.704511-3.140902 9.422706-9.422706zM273.291436 150.796252q18.845413 9.422706 0 18.845413L257.586925 160.218958l9.422707 3.140902 9.422706-3.140902-3.140902-9.422706zM782.117586 150.796252l21.986315 15.70451-9.422707 3.140903-12.563608-18.845413zM813.526607 175.923469l12.563609 18.845413-15.704511-9.422707 3.140902-9.422706zM223.037001 207.332491l-18.845413 25.127217 18.845413-25.127217zM838.653825 207.332491l6.281804 12.563608-6.281804-12.563608zM191.62798 226.177904l-6.281805 12.563608 6.281805-12.563608zM543.409022 232.459708q46.485352-5.653624 69.099847 12.563608l12.563609-6.281804 47.113532 21.986315-9.422706 3.140902-18.845413-6.281804-100.508869-18.845413v-6.281804zM417.772935 245.023316L565.395337 263.868729q-6.909985 16.960872 9.422706 12.563609v6.281804h-69.099847l-18.845413-12.563608-106.790674-6.281805-34.549923 21.986316 25.127217 12.563608-15.704511 3.140902h-12.563609l-37.690826 6.281805v-6.281805l21.986316-6.281804 9.422706-18.845413 81.663456-31.409022zM172.782567 251.305121q21.986315 12.563609-6.281805 25.127217l-6.281804-12.563609q8.166346 14.44815 15.704511-3.140902l-3.140902-9.422706zM876.34465 251.305121l15.704511 3.140902q-13.191789 20.729954-15.704511-3.140902zM606.227065 270.150534q23.870856-4.397263 28.268119 9.422706-8.794526 17.589052-37.690826 9.422707l9.422707-18.845413zM700.45413 270.150534q14.44815-4.397263 9.422706 9.422706h12.563609l-3.140902 9.422707 12.563608-6.281805 12.563609 18.845413q8.166346-14.44815 15.704511 3.140902h-12.563609l6.281804 12.563609-18.845413-6.281804q-4.397263 27.011759 12.563609 31.409021h-12.563609q-4.397263 14.44815 9.422707 9.422707 14.44815 18.845413 47.113532 12.563609l-6.281804-21.986316 37.690826 31.409022-3.140902 9.422706-12.563609-18.845412-15.704511 9.422706-15.704511 28.268119q-20.101774-8.166346-18.845413-37.690825l-6.281804 18.845412-25.127217-31.409021q-13.81997 5.025443-9.422707-9.422707l-9.422706-15.70451 15.704511 9.422706 6.281804-31.409022-28.268119-34.549923z" fill="#FEFDFE" p-id="2716"></path><path d="M687.890521 288.995947q18.845413-5.025443 9.422706 18.845413-32.665382 10.679067-25.127217-12.563609l15.704511-6.281804zM405.209327 295.277751l28.268119 3.140902-28.268119 3.140902v-6.281804zM920.317281 301.559555l-6.281805 12.563609 6.281805-12.563609zM763.272173 314.123164l21.986315 15.704511-12.563609 6.281804-9.422706-21.986315zM279.57324 320.404968l6.281805 12.563609-6.281805-6.281804-15.704511 9.422706 15.704511-15.704511zM254.446023 351.81399L245.023316 367.518501 238.741512 389.504816l-18.845413 9.422706 12.563609 25.127218-18.845413 12.563608-6.281804-18.845413h12.563608l-6.281804-18.845413 40.831728-47.113532zM939.162694 351.81399l6.281804 12.563609-6.281804-12.563609zM276.432338 364.377599l25.127217 9.422706-25.127217 9.422706v-18.845412zM706.735934 383.223011q23.870856-7.538165 15.704511 15.704511-8.166346 17.589052-15.704511 3.140902l-18.845413 6.281805v-6.281805q14.44815 5.025443 9.422706-9.422706l9.422707-9.422707zM257.586925 389.504816q25.755398-8.166346 18.845413 12.563608-25.755398 8.166346-18.845413-12.563608zM606.227065 402.068424l3.140902 47.113533-6.281804 6.281804V502.577294l-15.704511 6.281804-3.140902-56.536239h18.845413l3.140902-50.254435zM647.058793 402.068424l12.563608 3.140903-9.422706 53.395336-3.140902-56.536239zM725.581347 408.350229v18.845413l-15.704511-3.140902 15.704511-15.704511zM819.808412 408.350229l9.422706 9.422706 6.281804 53.395337q-30.780841-11.307248-18.845413 28.268119-9.422706 18.845413-18.845413 0-3.140902-28.268119 18.845413-31.409021l6.281805-31.409022-3.140902-28.268119zM260.727827 420.913837l15.704511 9.422707v50.254434q17.589052-3.769083 12.563609 15.704511h12.563608v47.113533l-12.563608 6.281804V540.268119l-12.563609-3.140902v-31.409021q-16.960872-6.909985-12.563609-28.26812-16.960872 6.909985-12.563608-9.422706l-6.281805-12.563609 15.704511-34.549924zM323.54587 427.195642l12.563609 18.845413-12.563609-18.845413zM204.191588 433.477446l3.140903 40.831728q17.589052 6.909985 12.563608 28.26812l-18.845413 9.422706-9.422706 40.831728-3.140902-72.24075 15.70451-47.113532z m-3.140902 43.97263l-6.281804 25.127218h6.281804v-25.127218zM976.85352 458.604663l3.140902 28.26812h-6.281805l3.140903-28.26812zM835.512922 483.731881h12.563609q-6.909985 16.960872 9.422707 12.563608v6.281805l-9.422707 3.140902v94.227064l-18.845413 3.140903V505.718196l6.281804-21.986315zM436.618348 502.577294l3.140902 47.113532h-6.281804l3.140902-47.113532zM543.409022 502.577294l3.140902 47.113532h-6.281805l3.140903-47.113532zM756.990368 540.268119l47.113533 3.140903-47.113533 3.140902v-6.281805zM232.459708 552.831728h18.845413q-6.909985 16.960872 9.422706 12.563609l18.845413-12.563609-9.422706 15.704511-6.281805 21.986315q-16.960872-6.909985-12.563608 9.422706l6.281804 15.704511-47.113532-18.845413q-7.538165 14.44815-15.704511-3.140902l3.140902-34.549924 18.845413 12.563609 15.704511-6.281804v-12.563609zM288.995947 584.24075l12.563608 3.140902-18.845413 12.563608 6.281805-15.70451zM618.790673 603.086163l-6.281804 12.563608 6.281804-12.563608z" fill="#FEFDFE" p-id="2717"></path><path d="M216.755197 609.367967l15.704511 28.268119-18.845413-12.563608 3.140902-15.704511zM270.150534 621.931576l18.845413 9.422706q9.422706 37.690826-9.422707 47.113532-13.81997-4.397263-9.422706 9.422707l-15.704511 9.422706-15.704511-25.127217h31.409022v-50.254434zM612.508869 621.931576l6.281804 12.563608-6.281804-12.563608zM782.117586 640.776989q16.332691 8.794526 12.563608 37.690825l9.422707-3.140902q-7.538165 17.589052-15.704511 3.140902l-12.563609-6.281804-12.563608 6.281804v-12.563608l-9.422707-3.140902 21.986315-9.422707 9.422707-3.140902-3.140902-9.422706zM223.037001 647.058793l12.563609 18.845413-12.563609-18.845413zM703.595032 684.749619h47.113532q-6.281804 18.845413 25.127217 12.563608v6.281805l-18.845413 12.563608-18.845413-6.281804-9.422706 3.140902V703.595032h-25.127217v-18.845413zM307.84136 697.313227q20.729954-6.909985 12.563608 18.845413l-15.704511 6.281805-3.140902-9.422707 6.281805-15.704511zM606.227065 697.313227q33.921743-3.769083 47.113532 6.281805 8.166346 18.845413-15.704511 12.563608l-31.409021 6.281805-9.422707-15.704511 9.422707-9.422707zM267.009632 703.595032l28.268119 21.986315q-4.397263 14.44815 9.422706 9.422706l21.986316 6.281805 6.281804 15.70451-9.422707 3.140903-40.831728-25.127218v-18.845413q-28.268119 8.166346-15.70451-12.563608zM490.013685 709.876836l12.563609 3.140902V778.976684l-18.845413-9.422707 6.281804-59.677141zM367.518501 716.15864q33.293563-10.679067 21.986315 21.986315-4.397263 14.44815-28.26812 9.422707l-15.70451-6.281804 9.422706-18.845413 12.563609-6.281805zM713.017738 716.15864l9.422707 15.704511-21.986315 21.986315-6.281805-6.281804q-33.921743 11.935428-28.268119-9.422707l47.113532-21.986315zM606.227065 753.849466l34.549924 9.422707-15.704511 21.986315-28.26812-6.281804 9.422707-25.127218zM439.75925 760.131271q18.845413-6.281804 12.563609 12.563608-18.845413 6.281804-12.563609-12.563608zM336.109479 766.413075l37.690826 12.563609 28.268119-6.281805 6.281805 25.127217q45.228991-9.422706 62.818043 15.704511l-9.422707-3.140902-56.536238-6.281804-69.099848-31.409022v-6.281804zM468.02737 791.540292l15.704511 3.140902-15.704511 3.140902v-6.281804zM304.700457 898.330966l15.704511 9.422706-9.422706 3.140902-6.281805-12.563608z" fill="#FEFDFE" p-id="2718"></path><path d="M480.590978 81.696404l78.522554 3.140902-78.522554 3.140903v-6.281805zM411.491131 94.260013l21.986315 3.140902-53.395337 15.704511v-6.281805l31.409022-12.563608zM763.272173 144.514447l6.281804 12.563609-6.281804-12.563609zM782.117586 163.35986l6.281804 12.563609-6.281804-12.563609zM499.436391 226.177904l59.677141 3.140902q-52.138976-5.025443-78.522554 15.70451L452.322859 235.60061l47.113532-9.422706zM427.195642 238.741512l18.845413 9.422707-18.845413 3.140902v-12.563609zM549.690826 238.741512l15.704511 3.140902-15.704511 3.140902v-6.281804zM662.763304 251.305121l-6.281805 12.563608 6.281805-12.563608zM750.708564 301.559555l15.704511 9.422707q-9.422706 18.845413-18.845413 0l3.140902-9.422707zM279.57324 326.686773l-18.845413 25.127217 18.845413-25.127217zM826.090216 376.941207l15.704511 21.986315-12.563609 6.281805 12.563609 25.127217-12.563609-6.281804-12.563609-18.845413 12.563609-6.281805q-23.242676-10.679067-3.140902-21.986315zM951.726302 395.78662l21.986315 65.958945v113.072478h-6.281804v-106.790673L951.726302 395.78662zM706.735934 402.068424l15.704511 9.422707-9.422707 3.140902-6.281804-12.563609zM851.217433 427.195642l15.704511 59.677141h-12.563609l-3.140902 9.422706-3.140902-9.422706q15.704511-9.422706 6.281804-43.972631l-3.140902-15.70451zM656.481499 433.477446l9.422707 15.704511h-6.281805l-3.140902-15.704511zM430.336544 458.604663l9.422706 3.140902-15.70451 9.422707 6.281804-12.563609zM310.982262 464.886468l9.422706 15.70451h-6.281804l-3.140902-15.70451zM91.119111 483.731881l3.140902 15.70451-9.422707 47.113533q-15.07633-13.191789-9.422706-47.113533h12.563609l3.140902-15.70451zM860.64014 496.295489l12.563608 3.140902v43.972631l-12.563608 69.099847-40.831728 65.958945-15.704511-9.422706 18.845413-12.563609q29.52448-30.152661 37.690826-81.663456v-12.563608q-8.166346-29.52448 6.281804-37.690826l-6.281804-28.26812zM587.381652 546.549924l-6.281804 12.563608 6.281804-12.563608zM750.708564 546.549924l6.281804 12.563608-6.281804-12.563608zM81.696404 565.395337l12.563609 3.140902v56.536239l6.281804 31.409021h-6.281804L81.696404 565.395337zM782.117586 590.522554q10.679067 19.473593 21.986315 9.422706l-18.845413 9.422707-3.140902-18.845413zM964.289911 590.522554l3.140902 21.986315-15.704511 40.831728-3.140902-9.422706 15.704511-53.395337zM223.037001 603.086163l6.281805 12.563608q-17.589052 4.397263-6.281805-12.563608zM643.917891 603.086163l9.422706 21.986315h-6.281804l-3.140902-21.986315zM772.694879 615.649771l12.563609 3.140902-21.986315 15.704511v-6.281804q16.332691 4.397263 9.422706-12.563609zM109.964524 665.904206l-6.281805 12.563608 6.281805-12.563608zM945.444498 672.18601l-3.140902 9.422707q5.025443 23.870856-9.422707 28.268119l-3.140902-9.422706 15.704511-28.26812zM807.244803 678.467814l6.281804 12.563609H804.103901v12.563609q-16.960872-6.909985-12.563609 9.422706l-53.395337 47.113533-21.986315 6.281804v-12.563609h18.845413q-7.538165-18.845413 15.704511-12.563608l15.704511-9.422707v-12.563608l3.140902-9.422707 9.422707 3.140902 9.422706-21.986315 18.845413-12.563609zM116.246328 684.749619l15.704511 21.986315-9.422707 15.704511-6.281804-37.690826zM298.418653 697.313227q18.845413 9.422706 0 18.845413-13.81997 5.025443-9.422706-9.422706l9.422706-9.422707zM703.595032 709.876836l12.563608 3.140902-12.563608 6.281805V709.876836zM926.599085 716.15864l3.140902 9.422707-21.986315 28.268119 3.140902-9.422706 15.704511-28.26812zM135.091741 722.440445q18.845413 9.422706 0 18.845413-18.845413-9.422706 0-18.845413zM147.65535 741.285858l-3.140903 9.422706 3.140903 9.422707 9.422706-3.140903-3.140902 9.422707 9.422706 3.140902-9.422706 3.140902-15.704511-21.986315 9.422707-9.422706zM706.735934 760.131271l3.140902 9.422706-28.268119 21.986315-75.381652 25.127217-122.495184 6.281805 3.140902-12.563609h69.099847l12.563609-6.281804 25.127217 6.281804 113.072478-50.254434zM901.471868 760.131271l3.140902 9.422706-6.281804 15.704511-15.704511 6.281804 15.704511-21.986315 3.140902-9.422706zM163.35986 778.976684q18.845413-7.538165 12.563609 15.70451l15.704511 21.986315 9.422706-3.140902q-3.140902 31.409022 21.986315 34.549924l53.395337 34.549924-3.140902 9.422706 28.268119 9.422707-15.70451 3.140902-21.986316-15.704511-9.422706-15.704511-9.422707 3.140902q5.025443-13.81997-9.422706-9.422706L169.641665 800.962999l-6.281805-21.986315zM449.181957 810.385705l15.704511 3.140902-15.704511 3.140902v-6.281804zM844.935629 829.231118l-6.281804 12.563609 6.281804-12.563609zM323.54587 910.894574l15.704511 9.422707q5.025443 14.44815-9.422706 9.422706v-12.563608l-12.563609 6.281804 6.281804-12.563609zM354.954892 923.458183l21.986315 9.422706-3.140902 15.704511-28.268119-15.704511 9.422706-9.422706zM687.890521 929.739987l15.704511 3.140902-15.704511 3.140902v-6.281804zM424.05474 948.5854l9.422706 3.140902-15.704511 9.422707 6.281805-12.563609zM442.900152 961.149009q47.741713-9.422706 40.831729 12.563608l-40.831729-6.281804v-6.281804zM518.281804 961.149009l21.986315 3.140902q-7.538165 17.589052-15.70451 3.140902l-6.281805-6.281804z" fill="#F3F8FC" p-id="2719"></path><path d="M951.726302 0.032948h62.818043l9.422707 9.422707-6.281804 87.94526v12.563609l6.281804 12.563608-6.281804 6.281805v226.144955l-15.704511 15.704511-9.422707-3.140902-9.422706 34.549923-3.140902-9.422706 6.281804-25.127217h-6.281804l-3.140902 15.70451-6.281805-31.409021-9.422706 3.140902-3.140902-21.986315-9.422707 3.140902 6.281804-12.563609-37.690825-50.254434h6.281804l15.704511 21.986315 3.140902-9.422706-25.127217-40.831729-15.704511 6.281805-34.549924-40.831728 3.140902-9.422707H854.358335q6.909985-16.960872-9.422706-12.563608l-21.986315-12.563609v-12.563609h-12.563609l-12.563609-25.127217h-15.70451l-47.113533-28.268119 18.845413-12.563609-31.409021-3.140902-3.140902 12.563608-15.704511-6.281804-15.704511-31.409021-9.422707-3.140903 12.563609-6.281804q-23.870856-23.242676-75.381652-18.845413l56.536239-6.281804-75.381652-6.281805 37.690826-6.281804L625.072478 6.314752h320.37202l6.281804-6.281804zM829.231118 125.669034q-6.281804 25.127217 12.563609 18.845413 6.281804-25.127217-12.563609-18.845413z m62.818043 75.381652v18.845413q18.845413-6.281804 0-18.845413z m43.97263 50.254435l6.281805 12.563608q6.281804-18.845413-6.281805-12.563608z m43.972631 50.254434l-12.563609 12.563609 18.845413 6.281804q6.281804-25.127217-6.281804-18.845413z m18.845413 37.690826l-12.563609 18.845413 6.281804 6.281805 12.563609-6.281805-6.281804-18.845413zM587.381652 12.596557l15.704511 3.140902-15.704511 3.140902V12.596557z" fill="#CC4DF1" p-id="2720"></path><path d="M606.227065 50.287383l21.986315 3.140902-21.986315 3.140902V50.287383zM562.254435 56.569187l15.70451 3.140902-15.70451 3.140902V56.569187zM1001.980737 383.223011l3.140902 15.704511h-6.281804l3.140902-15.704511zM9.455655 402.068424l25.127217 12.563609h12.563608l34.549924 6.281804-3.140902 18.845413h-12.563609l-12.563608-6.281804h-12.563609l-18.845413-12.563609-12.563608-6.281804-9.422707 3.140902L9.455655 402.068424zM986.276226 490.013685q29.52448-6.281804 37.690826 15.704511v345.499237l-6.281804 25.127217 6.281804 25.127218-6.281804 12.563608 6.281804 6.281805V1023.967052l-420.880889-3.140902 414.599085-3.140902v-97.367967l-9.422707-3.140902-116.21338-91.086163-6.281804-12.563609q104.906132-110.559756 100.508869-323.512922z m6.281804 6.281804v18.845413l25.127218-6.281804-25.127218-12.563609z m0 94.227065l-6.281804 18.845413h6.281804v-18.845413zM160.218958 577.958945l18.845413 62.818044 6.281804-12.563609 3.140903 15.704511-12.563609 18.845413 25.127217-12.563609 9.422707 28.268119 15.704511-9.422706-12.563609 18.845413h12.563609l-6.281805 12.563609 56.536239 43.97263q-13.81997 8.166346 3.140902 15.704511l28.26812 9.422706q-7.538165 20.729954-31.409022 15.704511 10.679067-25.755398-15.704511-18.845413l-21.986315 6.281804-6.281804-28.268119q14.44815-7.538165-3.140902-15.704511l-6.281805 12.563609-21.986315-15.704511v21.986315q25.755398-10.679067 18.845413 15.704511l6.281805 15.704511h25.127217q-9.422706 23.242676 9.422706 18.845412l-3.140902 9.422707q-4.397263 14.44815 9.422707 9.422706l-3.140903 9.422707q5.025443 14.44815-9.422706 9.422706-11.307248-19.473593-21.986315-9.422706l3.140902-9.422707q-16.332691 5.025443-9.422706-15.70451l-43.972631-31.409022 3.140902-9.422706-15.70451-9.422707q21.986315-9.422706 6.281804-18.845413l-3.140902-9.422706-6.281805 18.845413-6.281804-37.690826-6.281804 18.845413q-16.332691-15.704511-9.422707-50.254435-16.960872 6.909985-12.563608-9.422706-16.960872-4.397263-12.563609-31.409022h6.281804q-9.422706 27.639939 9.422707 21.986315l-3.140902-9.422706 3.140902-28.26812 6.281804 18.845413 3.140902-21.986315-3.140902-9.422706q16.332691-5.025443 9.422707 15.70451l9.422706 15.704511 3.140902-28.268119-3.140902-28.26812z m9.422707 62.818044l-12.563609 25.127217 12.563609-6.281805v-18.845412z m-25.127218 12.563608l-6.281804 12.563609 12.563609 6.281804-6.281805-18.845413z m18.845413 18.845413v31.409022h12.563609v-31.409022h-12.563609z m-6.281804 6.281804l-6.281804 25.127218h6.281804v-25.127218z m56.536239 18.845413q-12.563609 18.845413 6.281804 12.563609l-6.281804-12.563609z m-37.690826 6.281805q-6.281804 18.845413 12.563609 12.563608l6.281804 18.845413v-18.845413l-18.845413-12.563608z m18.845413 37.690826l-6.281804 18.845413h6.281804v-18.845413z m62.818043 6.281804l-6.281804 12.563609h18.845413l-12.563609-12.563609zM122.528132 590.522554l9.422707 15.704511-12.563609-6.281805 3.140902-9.422706zM304.700457 785.258488l12.563609 6.281804 9.422707-3.140902-3.140903 15.704511-12.563608-6.281805-12.563609 6.281805v-6.281805l9.422707-3.140902-3.140903-9.422706z" fill="#CC4DF1" p-id="2721"></path><path d="M285.855045 816.667509q23.870856-7.538165 15.70451 15.704511l-18.845413 6.281805q6.909985 20.729954-9.422706 15.70451-18.845413-9.422706 0-18.845413l15.704511-9.422706-3.140902-9.422707zM826.090216 866.921944l-12.563609 18.845413 12.563609-18.845413zM587.381652 973.712617l15.704511 3.140903-15.704511 3.140902v-6.281805z" fill="#CC4DF1" p-id="2722"></path><path d="M505.718196 87.978209l53.395336 3.140902-53.395336 3.140902v-6.281804zM455.463761 94.260013l15.704511 3.140902-15.704511 3.140902v-6.281804zM593.663456 94.260013l15.704511 3.140902-15.704511 3.140902v-6.281804zM398.927522 106.823621l15.704511 3.140903-15.704511 3.140902v-6.281805zM813.526607 194.768882l6.281805 12.563609-6.281805-12.563609zM524.563609 219.896099l15.70451 3.140902-15.70451 3.140903v-6.281805zM455.463761 226.177904l15.704511 3.140902-15.704511 3.140902v-6.281804zM3.17385 427.195642l3.140902 15.70451H0.032948L3.17385 427.195642zM681.608717 446.041055l-12.563609 18.845413 12.563609-18.845413zM725.581347 446.041055l6.281804 12.563608-6.281804-12.563608zM958.008107 458.604663l3.140902 15.704511h-6.281805l3.140903-15.704511zM72.273698 471.168272l3.140902 109.931576h-6.281804l3.140902-109.931576zM643.917891 483.731881l-12.563609 18.845413 12.563609-18.845413zM964.289911 502.577294l3.140902 47.113532h-6.281804l3.140902-47.113532zM876.34465 508.859098l3.140903 28.268119h-6.281805l3.140902-28.268119zM706.735934 527.704511l-6.281804 12.563608 6.281804-12.563608zM593.663456 540.268119l3.140902 21.986316h-6.281804l3.140902-21.986316zM3.17385 559.113532l3.140902 361.203749H0.032948L3.17385 559.113532zM958.008107 571.677141l3.140902 21.986315h-6.281805l3.140903-21.986315zM78.555502 596.804358l9.422707 40.831728h-6.281805l-3.140902-40.831728zM844.935629 647.058793l-6.281804 12.563608 6.281804-12.563608zM926.599085 691.031423l3.140902 9.422707q-42.716269 92.342523-116.21338 153.904205l-3.140902-12.563608 43.97263-34.549924 72.24075-116.21338zM800.962999 709.876836l-18.845413 25.127217 18.845413-25.127217zM116.246328 716.15864l9.422706 15.704511-12.563608-6.281804 3.140902-9.422707zM756.990368 747.567662l-6.281804 12.563609 6.281804-12.563609zM135.091741 753.849466l34.549924 47.113533-15.704511 9.422706 3.140902-9.422706-21.986315-47.113533zM731.863151 766.413075l6.281804 12.563609-6.281804-12.563609zM706.735934 778.976684l-6.281804 12.563608-18.845413 6.281804v-6.281804l25.127217-12.563608zM172.782567 810.385705L263.868729 895.190063l-15.70451-9.422706-40.831728-25.127217-9.422707-18.845413-9.422706 3.140902q5.025443-13.81997-9.422707-9.422707l-9.422706-9.422706 3.140902-15.704511zM593.663456 816.667509l15.704511 3.140903-15.704511 3.140902v-6.281805zM493.154587 822.949314l72.24075 3.140902-72.24075 3.140902v-6.281804zM775.835781 873.203748l-12.563608 18.845413 12.563608-18.845413zM750.708564 892.049161l-6.281804 12.563609 6.281804-12.563609zM260.727827 904.61277l-6.281804 12.563609 6.281804-12.563609zM279.57324 904.61277l34.549924 21.986315-12.563609 6.281804 3.140902-9.422706-18.845412-6.281804-12.563609 6.281804v-6.281804l9.422706-3.140903-3.140902-9.422706zM725.581347 904.61277l-6.281804 12.563609-9.422707-3.140903 15.704511-9.422706zM625.072478 942.303596l15.704511 3.140902-15.704511 3.140902v-6.281804zM367.518501 948.5854l21.986315 9.422707-9.422707 3.140902-12.563608-12.563609zM455.463761 948.5854l15.704511 3.140902-15.704511 3.140902v-6.281804zM593.663456 948.5854l15.704511 3.140902-15.704511 3.140902v-6.281804zM424.05474 967.430813l72.240749 9.422707-53.395337 3.140902-18.845412-6.281805v-6.281804zM505.718196 973.712617l34.549923 3.140903-34.549923 3.140902v-6.281805zM103.682719 1017.685248l373.767357 3.140902-373.767357 3.140902v-6.281804zM568.536239 1017.685248l28.268119 3.140902-28.268119 3.140902v-6.281804z" fill="#6CB3EF" p-id="2723"></path><path d="M468.02737 69.132796h119.354282l100.508869 25.127217q104.906132 39.575367 172.749619 116.21338l12.563608 18.845413q57.164419 52.767156 81.663456 138.199695l-3.140902 9.422706q14.44815-4.397263 9.422707 9.422707l6.281804 21.986315-15.704511 6.281804 9.422707-15.704511-3.140902-9.422706-15.704511 6.281804q-1.884541-40.831728-25.127217-65.958945V307.84136q-16.960872 6.909985-12.563609-9.422707l-25.127217-31.409021 9.422706-15.704511h-18.845413l-28.268119-28.26812q14.44815-7.538165-3.140902-15.70451l-9.422707 3.140902-6.281804-12.563609q17.589052-11.307248-9.422707-21.986315l-6.281804 12.563609-15.704511-9.422707 9.422707-15.704511-12.563609-6.281804q-7.538165 13.81997-15.704511-3.140902 5.025443-16.332691-15.704511-9.422707l-15.70451-3.140902 3.140902-9.422706-18.845413-6.281805h-12.563609l-9.422706-3.140902 3.140902-9.422706-31.409022-6.281805-9.422706 3.140903q5.025443-13.81997-9.422707-9.422707l-12.563608 6.281804-21.986315-9.422706 12.563608-6.281804-15.704511-3.140902-12.563608 6.281804v-12.563609h-69.099848l-12.563608-6.281804-18.845413 6.281804-18.845413-6.281804-47.113533 9.422706 12.563609 6.281805-15.704511 9.422706v-12.563608h-18.845413q-12.563609 20.101774-40.831728 18.845412 6.909985 16.960872-9.422706 12.563609L351.81399 113.105426q6.909985 16.960872-9.422707 12.563608-4.397263 17.589052-31.409021 12.563609-8.166346-13.81997-15.704511 3.140902 16.960872 10.679067-9.422706 21.986315h-12.563609l-9.422707 3.140902q14.44815 8.166346-3.140902 15.704511L201.050686 229.318806 191.62798 245.023316l-9.422707 3.140903 3.140902 9.422706-15.70451 9.422707q17.589052 11.307248-9.422707 21.986315l-9.422706 3.140902v12.563608L125.669034 364.377599l-12.563608 3.140902 6.281804 15.70451-12.563609 3.140903 6.281805 18.845413-12.563609 25.127217-6.281804 53.395337-12.563609-3.140903v-50.254434l31.409022-94.227065-3.140902-9.422706q14.44815 5.025443 9.422706-9.422707l37.690826-56.536239-3.140902-9.422706 18.845413 6.281804v-6.281804q-16.332691 4.397263-9.422707-12.563609l18.845413-9.422706 9.422707-15.704511q33.293563 11.307248 21.986315-21.986315l40.831728-34.549924 9.422706 3.140902 9.422707-15.704511 62.818043-37.690826 131.917891-37.690825zM320.404968 125.669034v6.281805h12.563609l-12.563609-6.281805z" fill="#F8D8FD" p-id="2724"></path><path d="M669.045108 251.305121l15.704511 9.422706-9.422707 3.140902-6.281804-12.563608zM725.581347 276.432338l9.422706 15.704511-12.563608-6.281804 3.140902-9.422707zM323.54587 282.714142l3.140903 12.563609-15.704511 6.281804 12.563608-18.845413zM298.418653 301.559555L288.995947 317.264066l-3.140902 9.422707-3.140903-9.422707 15.704511-15.704511zM788.39939 332.968577l21.986315 15.704511 12.563609 18.845413-25.127218-18.845413q5.025443-13.81997-9.422706-9.422707v-6.281804zM260.727827 339.250381l-12.563608 18.845413 12.563608-18.845413zM235.60061 370.659403l-6.281804 12.563608 6.281804-12.563608zM216.755197 402.068424l3.140902 15.704511h-6.281804l3.140902-15.704511zM970.571715 414.632033l9.422707 43.97263q-18.845413 8.166346-12.563609-15.704511l-6.281804-18.845412 9.422706-9.422707zM197.909784 439.75925l3.140902 15.704511h-6.281804l3.140902-15.704511zM983.135324 477.450076l3.140902 15.704511v62.818043l-6.281804 6.281805-6.281805 69.099847-31.409021 87.945261-50.254435 81.663456-78.522554 78.522554-119.354282 69.099847-81.663456 25.127217h-62.818043l6.281804-12.563608h50.254435l62.818043-12.563609 50.254435-18.845413 84.804358-50.254434 3.140902-12.563609q8.166346 14.44815 15.704511-3.140902l15.704511-21.986315 18.845413-12.563609 21.986315-37.690826 18.845413-9.422706 56.536238-113.072478 18.845413-94.227065v-81.663456l9.422707-15.704511zM91.119111 502.577294l3.140902 59.677141h-6.281804l3.140902-59.677141zM185.346175 502.577294L194.768882 587.381652h-6.281804L185.346175 502.577294zM97.400915 584.24075l15.704511 78.522554 18.845413 37.690826-12.563609-6.281805-18.845413-37.690826-3.140902-72.240749zM197.909784 596.804358l28.26812 47.113533-6.281805 6.281804 18.845413 18.845413q-3.140902 25.127217 15.704511 28.268119 18.845413-5.025443 9.422706 18.845413h18.845413v15.704511h-6.281804q5.025443-13.81997-9.422706-9.422706-55.279878-48.369893-69.099848-125.636087zM292.136849 735.004053l47.113532 28.26812q-14.44815 23.242676-28.268119-9.422707l-18.845413-18.845413zM380.082109 778.976684l-6.281804 12.563608 6.281804-12.563608zM179.064371 785.258488l15.704511 21.986315-18.845413-12.563609 3.140902-9.422706zM204.191588 810.385705l15.704511 21.986315-9.422706 3.140902q-15.704511-6.281804-6.281805-25.127217zM229.318806 841.794727l12.563608 18.845413-12.563608-18.845413zM254.446023 860.64014l6.281804 12.563608-6.281804-12.563608zM279.57324 879.485553l21.986315 15.70451-9.422706 3.140903-15.704511-6.281805 3.140902-12.563608zM342.391283 917.176379l6.281805 12.563608-6.281805-12.563608z" fill="#F8D8FD" p-id="2725"></path><path d="M794.681194 320.404968l6.281805 12.563609-6.281805-12.563609zM354.954892 446.041055q56.536239-9.422706 65.958945 28.268119l6.281805 18.845413-6.281805 6.281804v106.790674l-15.70451 21.986315-56.536239 6.281804-28.26812-34.549924v-113.072477l21.986315-34.549924 12.563609-6.281804zM687.890521 446.041055q39.575367-7.538165 47.113532 15.70451l6.281805 18.845413-43.972631 62.818044 56.536239 34.549923 6.281805 34.549924-15.704511 21.986315-25.127217 6.281805-100.50887-56.536239-21.986315-21.986315 6.281805-31.409022L687.890521 446.041055z" fill="#1D1C1E" p-id="2726"></path><path d="M505.718196 232.459708l34.549923 3.140902-34.549923 3.140902v-6.281804zM449.181957 238.741512h12.563608l15.704511 3.140902-31.409021 9.422707 3.140902-12.563609zM474.309174 251.305121l28.26812 3.140902-28.26812 3.140902v-6.281804zM461.745565 270.150534l28.26812 3.140902-28.26812 3.140902v-6.281804zM499.436391 276.432338l6.281805 6.281804h75.381652l6.281804 6.281805h12.563608l43.972631-6.281805 25.127217 12.563609 12.563609-6.281804v6.281804q-16.332691-4.397263-9.422707 12.563609 32.665382 13.191789 25.127217-15.704511h6.281805q-8.166346 30.152661 12.563608 21.986315-6.909985-16.960872 9.422707-12.563609l-3.140902 9.422707-6.281805 40.831728 25.127218 15.704511 6.281804 12.563608-18.845413 3.140902 9.422706 18.845413q47.113532-6.281804 65.958946 6.281805-10.050887 13.191789-6.281805 47.113532l12.563609 18.845413-12.563609 25.127217q8.166346 17.589052 15.704511 3.140903l15.704511 9.422706-3.140902 91.086163-3.140902-50.254435-25.127218 15.704511-3.140902 9.422706-3.140902-18.845413-12.563608-3.140902 9.422706-3.140902q8.166346 13.81997 15.704511-3.140902l-3.140902-9.422707h-43.972631l-15.70451 9.422707 31.409021 43.97263-12.563608-6.281804-15.704511-21.986315-9.422707-3.140902q14.44815-7.538165-3.140902-15.704511l-12.563608 6.281804-12.563609-18.845413 18.845413 6.281804 9.422706-3.140902-6.281804-12.563608 9.422706-21.986315 9.422707 3.140902 6.281804-18.845413h-12.563608l12.563608-18.845413-12.563608-3.140902-15.704511-25.127218-15.704511-3.140902 15.704511-3.140902 28.268119 21.986315-6.281804-12.563609 6.281804-12.563608-9.422706 3.140902-9.422707-3.140902 9.422707-15.704511-25.127217 12.563609 12.563608-25.127218-12.563608 6.281805 3.140902-9.422707q8.166346-23.242676-15.704511-15.704511l-9.422707 15.704511 12.563609 12.563609q-19.473593 11.307248-9.422706 21.986315l-15.704511-9.422706 18.845413-12.563609-15.704511-9.422707v12.563609l-21.986315 9.422707 18.845413 9.422706v12.563609q-16.960872-6.909985-12.563609 9.422706-11.307248 27.011759-21.986315 9.422707H640.776989v25.127217q-16.960872-6.909985-12.563609 9.422706l-31.409022 18.845413q6.909985 20.729954-9.422706 15.704511l3.140902-9.422706q5.025443-13.81997-9.422706-9.422707L565.395337 521.422706v-12.563608h37.690826v-15.704511l6.281804-31.409022-25.127217-9.422706v50.254435h-43.972631v50.254434q25.755398 10.679067 18.845413-15.704511l-6.281804-18.845413h6.281804l6.281805 31.409022-6.281805 6.281804 21.986316 28.26812-18.845413-6.281805-9.422707 21.986315h6.281804l3.140903-9.422706 6.281804 12.563609 12.563609-6.281805 9.422706 3.140902v-25.127217q-25.127217-6.281804-18.845413-43.97263h6.281804l6.281805 18.845413-3.140902 9.422706q14.44815-4.397263 9.422706 9.422707l18.845413 12.563609-12.563609 6.281804 9.422707 9.422706 15.704511-9.422706-3.140903 9.422706 12.563609 6.281805 9.422707-3.140903-15.704511 9.422707q-10.679067-23.242676-21.986315-3.140902 25.127217 12.563609 0 25.127217-6.909985 20.729954 9.422706 15.704511l18.845413 6.281804v-6.281804l-15.704511-9.422707 25.127218-9.422706v25.127217h9.422706l31.409022-25.127217 43.97263 25.127217 34.549924-18.845413q-6.281804 18.845413 12.563608 12.563609l3.140902-18.845413 9.422707 21.986315h-12.563609l-3.140902 9.422706q-7.538165-13.81997-15.704511 3.140903-7.538165 23.870856 15.704511 15.70451h12.563609l9.422706 3.140903-37.690826 15.70451-3.140902-12.563608H703.595032q8.166346 20.729954-21.986315 12.563608l-21.986316 6.281805q-7.538165 18.845413 15.704511 12.563608h12.563609l15.704511 3.140903-37.690826 18.845412q5.025443 14.44815-9.422707 9.422707l-18.845413-6.281804 3.140903 9.422706q5.025443 16.332691-15.704511 9.422707l-18.845413-6.281805-9.422707 25.127218q16.960872-6.909985 12.563609 9.422706l-3.140902 15.704511-103.649771 6.281804q9.422706-23.870856-9.422707-18.845413h-12.563609q-55.908058 8.166346-78.522554-6.281804l3.140903-12.563609h12.563608q43.34445 12.563609 34.549924-12.563608h-37.690826v-47.113533l-9.422706-9.422706-69.099848-6.281805-12.563609 18.845413-3.140902-18.845413-21.986315 12.563609-15.704511-34.549924 9.422707 3.140902q14.44815 5.025443 9.422706-9.422706l6.281805-12.563609-3.140903-21.986315 9.422707 3.140902-9.422707-15.70451q-13.81997 27.011759-28.268119-3.140903l6.281804-15.70451h-31.409021v-12.563609q16.960872 6.909985 12.563608-9.422706l18.845413-25.127218-9.422706-3.140902-21.986315 12.563609q6.281804-18.845413-12.563609-12.563609v-15.704511l6.281804-28.268119 40.831729-12.563609v6.281805l-9.422707 3.140902V540.268119q16.960872-6.909985 12.563609 9.422707l12.563608-6.281804q-10.679067-39.575367 6.281805-50.254435l-6.281805-12.563609 12.563609-6.281804-6.281804 12.563609 6.281804 18.845413v75.381652l-6.281804 12.563608 6.281804 15.704511-12.563609 3.140902 12.563609 3.140902 12.563609 21.986315-6.281805 12.563609 9.422707-3.140902 12.563608 6.281804 3.140903-12.563608-12.563609-3.140903 9.422706-3.140902 43.972631 18.845413 12.563608-6.281804 9.422707 3.140902-6.281805-12.563609 21.986316 15.704511 21.986315-9.422706-3.140903-9.422707 9.422707-3.140902-15.704511-21.986315-12.563608 6.281804v-6.281804q16.332691 5.025443 9.422706-15.704511l-6.281804-18.845413h6.281804l3.140902 15.704511 3.140902-94.227065 12.563609-3.140902-6.281804-12.563609v-12.563608L436.618348 452.322859h-31.409021l-25.127218-18.845413-43.97263-12.563609 6.281804 12.563609 9.422707 3.140902-18.845413 12.563609q14.44815-7.538165-3.140902-15.704511l-3.140902 12.563609q-18.845413 6.281804-12.563609-12.563609 16.960872 6.909985 12.563609-9.422706l3.140902-9.422707q-16.332691-4.397263-9.422707 12.563609h-12.563608v15.70451h-6.281805q6.909985-20.729954-9.422706-15.70451-16.960872 8.166346-9.422707 40.831728 14.44815 8.166346-3.140902 15.704511l-3.140902-53.395337-12.563609-12.563609 3.140903-9.422706-28.26812-15.704511 9.422707 3.140902 59.677141 9.422707-6.281805 18.845413h6.281805l12.563608-18.845413 9.422707 3.140902 21.986315-6.281805V310.982262l-6.281804-6.281805 25.127217-3.140902q-7.538165-18.845413 15.704511-12.563608v6.281804l-9.422707 3.140902 15.704511 3.140902 12.563609-12.563608 97.367967-3.140902-3.140903-9.422707z m3.140903 12.563609l12.563608 18.845413 56.536239-6.281805v-12.563608H502.577294z m-94.227065 6.281804v6.281804h25.127217l-25.127217-6.281804z m301.526607 31.409022l-6.281804 43.97263h18.845413l-12.563609-25.127217q12.563609-12.563609 0-18.845413zM609.367967 402.068424l-6.281804 50.254435h6.281804v-50.254435z m37.690826 0v50.254435h-18.845413l-18.845413 6.281804h12.563609q6.281804 25.127217-12.563609 37.690826l6.281804 12.563609 18.845413-37.690826 18.845413-12.563609h12.563609v-6.281804q12.563609-12.563609 0-18.845413-18.845413 6.281804-12.563609-6.281804l6.281804-18.845413 18.845413 6.281804v-12.563609h-31.409021z m-301.526607 6.281805l6.281804 6.281804 6.281804 6.281804q6.281804-18.845413-12.563608-12.563608z m31.409021 0q-6.281804 12.563609 18.845413 6.281804l6.281804 6.281804q6.281804-25.127217-25.127217-12.563608z m-12.563608 12.563608v6.281805l31.409021 6.281804q6.281804-25.127217-31.409021-12.563609z m383.190063 100.508869q-18.845413 12.563609 0 18.845413h6.281804l-6.281804-18.845413z m-439.726302 31.409022l-6.281805 25.127217h6.281805v-25.127217z m251.272172 6.281804l-6.281804 18.845413h6.281804v-18.845413z m-270.117585 25.127218l-6.281805 18.845413h18.845413q6.281804-25.127217-12.563608-18.845413z m157.045108 6.281804l-6.281805 18.845413h6.281805v-18.845413z m232.426759 43.97263l-12.563608 18.845413 18.845413-12.563608-6.281805-6.281805z m-69.099847 62.818043l-12.563609 12.563609 12.563609 12.563609 31.409022-6.281805q18.845413 6.281804 12.563608-12.563608-12.563609-12.563609-43.97263-6.281805z m-119.354282 12.563609l-6.281804 62.818043 18.845413 6.281805v-62.818044l-12.563609-6.281804z m113.072478 18.845413q-6.281804 18.845413 18.845413 12.563609 6.281804-18.845413-18.845413-12.563609z" fill="#FEFEFE" p-id="2727"></path><path d="M738.144955 307.84136l9.422707 15.70451-12.563609 12.563609 15.704511 21.986315-15.704511-6.281804-6.281804-15.704511 9.422706-28.268119zM788.39939 351.81399l3.140902 12.563609-12.563608-3.140903 9.422706-9.422706zM756.990368 364.377599l3.140903 21.986315h-6.281805l3.140902-21.986315zM273.291436 376.941207l3.140902 12.563609-12.563609-3.140902 9.422707-9.422707zM813.526607 389.504816q17.589052 8.166346 3.140902 15.704511l-3.140902 9.422706-9.422706-15.704511 9.422706-9.422706zM838.653825 408.350229l9.422706 21.986315h-6.281804l-3.140902-21.986315zM832.37202 427.195642l3.140902 21.986315h-6.281804l3.140902-21.986315zM317.264066 452.322859l9.422707 15.704511h-6.281805l-3.140902-9.422707-9.422706 3.140902 9.422706-9.422706zM251.305121 477.450076q18.845413-7.538165 12.563608 15.704511l-12.563608-6.281804V477.450076zM857.499238 483.731881l6.281804 12.563608q-17.589052 4.397263-6.281804-12.563608zM430.336544 490.013685l3.140902 65.958945h-6.281804l3.140902-65.958945zM197.909784 540.268119l3.140902 15.704511h-6.281804l3.140902-15.704511zM763.272173 552.831728q14.44815-4.397263 9.422706 9.422707l12.563609 21.986315q18.845413-7.538165 12.563608 15.70451h12.563609v28.26812q-16.960872-6.909985-12.563609 9.422706h-6.281804l-6.281804-25.127217h6.281804l3.140902 9.422707 3.140902-15.704511-34.549923-53.395337zM851.217433 552.831728l3.140902 47.113532-21.986315 40.831729 3.140902-9.422707q18.217233-28.8963 15.704511-78.522554z" fill="#FEFEFE" p-id="2728"></path><path d="M782.117586 596.804358l-3.140902 9.422707-15.704511 21.986315 9.422706-15.704511 9.422707-15.704511zM229.318806 603.086163l28.268119 15.70451-25.127217 3.140903-3.140902 12.563608-3.140902-9.422706 6.281804-12.563609-3.140902-9.422706zM669.045108 615.649771l-12.563609 18.845413-3.140902-12.563608 15.704511-6.281805zM267.009632 621.931576l3.140902 28.268119v12.563609q5.653624 18.845413-21.986315 9.422706v-6.281804q21.358135 5.653624 9.422706-28.26812l9.422707-15.70451zM417.772935 621.931576l6.281805 12.563608 6.281804-12.563608 3.140902 18.845413-18.845413-9.422707 3.140902-9.422706zM807.244803 672.18601l-6.281804 12.563609 6.281804-12.563609zM706.735934 703.595032q33.293563-9.422706 21.986315 18.845413h-12.563609q6.909985-16.960872-9.422706-12.563609v-6.281804zM628.21338 778.976684l21.986315 6.281804 9.422706-3.140902q-7.538165 15.704511-31.409021 9.422706v-12.563608z" fill="#FEFEFE" p-id="2729"></path><path d="M474.309174 94.260013l116.21338 3.140902Q584.24075 113.105426 555.97263 106.823621l-18.845413-6.281804h-62.818043v-6.281804zM436.618348 100.541817l28.26812 3.140902q-26.383578-1.256361-34.549924 15.704511l-69.099848 12.563609-50.254434 25.127217 6.281804-12.563609 119.354282-43.97263zM599.94526 100.541817q124.379726 16.960872 197.876836 84.804358l-9.422706 3.140903q-25.127217-31.409022-75.381652-37.690826l-18.845413-18.845413-81.663456-18.845413-12.563609-12.563609zM285.855045 163.35986l3.140902 12.563609-34.549924 18.845413 6.281804-12.563609 25.127218-18.845413zM807.244803 194.768882l40.831728 34.549924 31.409022 37.690826-12.563609 3.140902-31.409022-50.254435-28.268119-25.127217zM223.037001 213.614295l-3.140902 9.422706-3.140902 9.422707-3.140902-9.422707 9.422706-9.422706zM505.718196 213.614295h62.818043l40.831728 6.281804q6.909985 16.960872-9.422707 12.563609l-6.281804-6.281804-69.099847-6.281805-6.281805 6.281805h-62.818043l-81.663456 31.409021-3.140902-12.563609 40.831728-18.845412 87.94526-6.281805 6.281805-6.281804zM625.072478 226.177904q40.831728 0 59.677141 21.986315l-15.704511 3.140902-31.409022-18.845413q-11.307248 15.704511-12.563608-6.281804zM354.954892 251.305121l9.422707 3.140902-28.26812 21.986315-3.140902-12.563609 21.986315-12.563608zM694.172325 251.305121l28.26812 6.281804-3.140902 18.845413-6.281805-12.563609-9.422706 3.140903 3.140902-9.422707q-18.845413 3.140902-12.563609-6.281804zM317.264066 276.432338l3.140902 12.563609-28.268119 18.845413 3.140902-9.422707 9.422706-15.704511 12.563609-6.281804zM756.990368 282.714142l40.831728 47.113533-25.127217-18.845413q5.025443-16.332691-15.704511-9.422707v-18.845413zM882.626455 282.714142q14.44815-4.397263 9.422706 9.422707l3.140902 9.422706-12.563608-18.845413zM901.471868 314.123164q14.44815-4.397263 9.422706 9.422706l12.563609 31.409022h-6.281804V339.250381q-18.845413 8.166346-12.563609-15.704511l-3.140902-9.422706zM807.244803 332.968577l18.845413 25.127217-15.704511-9.422706-3.140902-15.704511zM826.090216 364.377599q14.44815-4.397263 9.422706 9.422706l25.127218 31.409022 25.127217 87.94526v106.790673l-25.127217 37.690826 3.140902 9.422707q-13.81997-4.397263-9.422707 9.422706l-6.281804 15.704511q-16.960872-6.909985-12.563609 9.422707l-6.281804 21.986315-18.845413 9.422706-6.281804 21.986315-69.099848 40.831728 3.140902 9.422707-12.563608 6.281804h-12.563609l-81.663456 37.690826-106.790673 12.563609q-28.8963-18.217233-81.663457-12.563609L376.941207 800.962999l9.422707-3.140903q65.958945 37.690826 175.890521 31.409022l125.636086-31.409022q67.843487-32.665382 116.21338-84.804358l62.818043-106.790673 12.563609-94.227065-18.845413-81.663456-34.549924-65.958945zM926.599085 364.377599l28.268119 72.240749 6.281805 131.917891-9.422707 40.831728-3.140902-153.904206-21.986315-91.086162zM9.455655 427.195642l6.281804 12.563608q-17.589052 4.397263-6.281804-12.563608zM367.518501 439.75925l15.70451 3.140902-15.70451 3.140903v-6.281805zM53.428285 452.322859q30.152661-10.679067 21.986315 15.704511L65.991893 496.295489q0-34.549924-12.563608-43.97263zM405.209327 452.322859l12.563608 18.845413-12.563608-18.845413zM97.400915 490.013685l3.140902 65.958945h-6.281804l3.140902-65.958945zM424.05474 496.295489l3.140902 103.649771h-6.281805l3.140903-103.649771zM901.471868 533.986315q16.332691-5.025443 9.422706 15.704511h-6.281804l-3.140902-15.704511zM706.735934 546.549924l6.281804 12.563608-6.281804-12.563608zM599.94526 565.395337l6.281805 12.563608-6.281805-12.563608zM738.144955 565.395337l6.281805 12.563608-6.281805-12.563608zM72.273698 584.24075l3.140902 15.70451h-6.281804l3.140902-15.70451zM329.827675 615.649771l12.563608 18.845413-12.563608-18.845413z" fill="#4E74C2" p-id="2730"></path><path d="M700.45413 628.21338l15.70451 9.422706-9.422706 3.140903-6.281804-12.563609zM361.236696 634.495184l28.26812 3.140902-28.26812 3.140903v-6.281805zM84.837306 640.776989l28.26812 78.522554-12.563609-6.281805q1.256361-32.665382-18.845413-43.97263l3.140902-28.268119zM116.246328 728.722249l28.268119 47.113532-18.845413-12.563608-9.422706-34.549924zM172.782567 766.413075l6.281804 12.563609-6.281804-12.563609zM336.109479 772.694879l6.281804 12.563609q-17.589052 4.397263-6.281804-12.563609zM153.937154 791.540292l3.140902 12.563609 12.563609 3.140902-9.422707 3.140902-6.281804-18.845413zM172.782567 816.667509l6.281804 12.563609-6.281804-12.563609zM838.653825 816.667509l-12.563609 18.845413 12.563609-18.845413zM197.909784 841.794727l6.281804 12.563608-6.281804-12.563608zM807.244803 848.076531l-12.563609 18.845413 12.563609-18.845413zM260.727827 854.358335l12.563609 18.845413-12.563609-18.845413zM210.473393 860.64014l84.804358 59.677141-9.422706 3.140902-21.986316-6.281804q6.909985-16.960872-9.422706-12.563609l-43.97263-43.97263zM775.835781 866.921944l-18.845413 25.127217 18.845413-25.127217zM292.136849 879.485553l15.704511 9.422706-9.422707 3.140902-6.281804-12.563608zM317.264066 898.330966l28.26812 15.70451-9.422707-3.140902q-23.870856-1.256361-18.845413-12.563608zM687.890521 917.176379l9.422706 3.140902-109.931575 34.549923h-113.072478v-6.281804h75.381652l31.409022-12.563609 81.663456-6.281804 25.127217-12.563608zM329.827675 936.021791l34.549924 15.704511-15.704511 3.140902-18.845413-18.845413zM417.772935 936.021791l40.831728 9.422707-21.986315 3.140902-18.845413-6.281804v-6.281805zM373.800305 954.867204l65.958945 21.986316-15.70451 3.140902-43.972631-12.563609-6.281804-12.563609zM518.281804 979.994422q42.088089-10.679067 53.395337 9.422706l-15.704511 3.140902q-7.538165-13.81997-37.690826-6.281804v-6.281804z" fill="#4E74C2" p-id="2731"></path><path d="M6.314752 452.322859l50.254435 21.986315-6.281804 31.409022 3.140902 9.422706q-13.81997-4.397263-9.422707 9.422707l6.281805 31.409021-12.563609 6.281805V508.859098H18.878361l-9.422706 56.536239L6.314752 452.322859zM926.599085 571.677141h21.986315v53.395337l-25.127217 43.97263-18.845413 65.958945q-18.845413-7.538165-12.563609 15.704511-31.409022 21.986315-37.690826 59.677141l-62.818043 43.97263-3.14" fill="#0C9BE6" p-id="2732"></path></svg>