<?xml version="1.0" encoding="UTF-8"?>
<!DOCTYPE svg PUBLIC "-//W3C//DTD SVG 1.1//EN" "http://www.w3.org/Graphics/SVG/1.1/DTD/svg11.dtd">
<svg xmlns="http://www.w3.org/2000/svg" version="1.1" width="200px" height="200px" style="shape-rendering:geometricPrecision; text-rendering:geometricPrecision; image-rendering:optimizeQuality; fill-rule:evenodd; clip-rule:evenodd" xmlns:xlink="http://www.w3.org/1999/xlink">
<g><path style="opacity:0.995" fill="#48b4ff" d="M 27.5,-0.5 C 52.5,-0.5 77.5,-0.5 102.5,-0.5C 53.2798,14.0554 18.9464,45.0554 -0.5,92.5C -0.5,70.8333 -0.5,49.1667 -0.5,27.5C 3.16667,12.5 12.5,3.16667 27.5,-0.5 Z"/></g>
<g><path style="opacity:1" fill="#4dafff" d="M 102.5,-0.5 C 121.167,-0.5 139.833,-0.5 158.5,-0.5C 150.009,1.04847 141.676,3.54847 133.5,7C 125.256,11.6211 116.923,15.9544 108.5,20C 100.923,26.3304 93.2568,32.6637 85.5,39C 84.3128,40.0195 83.3128,41.1861 82.5,42.5C 82.9569,43.2975 83.6236,43.6309 84.5,43.5C 67.5566,51.3648 58.5566,64.6982 57.5,83.5C 37.0024,87.8464 27.8357,100.513 30,121.5C 31.9001,129.644 36.0667,136.31 42.5,141.5C 42.1278,152.263 42.9612,162.93 45,173.5C 47.3935,182.188 49.8935,190.855 52.5,199.5C 44.1667,199.5 35.8333,199.5 27.5,199.5C 12.5,195.833 3.16667,186.5 -0.5,171.5C -0.5,145.167 -0.5,118.833 -0.5,92.5C 18.9464,45.0554 53.2798,14.0554 102.5,-0.5 Z"/></g>
<g><path style="opacity:1" fill="#50a8ff" d="M 158.5,-0.5 C 162.833,-0.5 167.167,-0.5 171.5,-0.5C 186.587,2.92055 195.587,12.2539 198.5,27.5C 194.938,19.0755 189.438,12.0755 182,6.5C 160.029,16.978 141.862,31.978 127.5,51.5C 114.609,41.3938 100.276,38.7272 84.5,43.5C 83.6236,43.6309 82.9569,43.2975 82.5,42.5C 83.3128,41.1861 84.3128,40.0195 85.5,39C 93.2568,32.6637 100.923,26.3304 108.5,20C 116.923,15.9544 125.256,11.6211 133.5,7C 141.676,3.54847 150.009,1.04847 158.5,-0.5 Z"/></g>
<g><path style="opacity:1" fill="#50a0ff" d="M 198.5,27.5 C 198.833,27.5 199.167,27.5 199.5,27.5C 199.5,74.1667 199.5,120.833 199.5,167.5C 194.509,183.825 183.842,194.491 167.5,199.5C 147.833,199.5 128.167,199.5 108.5,199.5C 101.765,182.828 98.0988,165.495 97.5,147.5C 112.17,147.667 126.837,147.5 141.5,147C 163.463,141.035 172.296,126.868 168,104.5C 163.121,92.4485 154.287,85.4485 141.5,83.5C 141.758,75.7475 139.758,68.7475 135.5,62.5C 133.632,58.2917 130.965,54.6251 127.5,51.5C 141.862,31.978 160.029,16.978 182,6.5C 189.438,12.0755 194.938,19.0755 198.5,27.5 Z"/></g>
<g><path style="opacity:1" fill="#fdfdfd" d="M 127.5,51.5 C 130.965,54.6251 133.632,58.2917 135.5,62.5C 132.6,76.6977 127.433,90.031 120,102.5C 118.681,100.75 118.181,98.7505 118.5,96.5C 116.315,96.2964 114.315,95.6298 112.5,94.5C 112.167,94.5 111.833,94.5 111.5,94.5C 110.5,94.5 109.5,94.5 108.5,94.5C 108.666,89.1563 108.499,83.8229 108,78.5C 105.499,75.1517 102.332,72.8184 98.5,71.5C 96.0436,70.7379 93.5436,70.0712 91,69.5C 88.0335,70.3765 88.0335,71.7099 91,73.5C 91.4935,75.1341 91.6602,76.8008 91.5,78.5C 91.2964,80.6854 90.6298,82.6854 89.5,84.5C 88.8333,84.8333 88.1667,85.1667 87.5,85.5C 84.6146,85.1936 81.9479,85.5269 79.5,86.5C 74.2054,92.3831 71.8721,99.3831 72.5,107.5C 74.2142,117.546 79.8809,124.213 89.5,127.5C 92.3054,128.319 95.3054,128.819 98.5,129C 92.0232,135.814 84.6899,141.481 76.5,146C 69.8417,146.5 63.175,146.666 56.5,146.5C 51.3995,145.945 46.7329,144.279 42.5,141.5C 36.0667,136.31 31.9001,129.644 30,121.5C 27.8357,100.513 37.0024,87.8464 57.5,83.5C 58.5566,64.6982 67.5566,51.3648 84.5,43.5C 100.276,38.7272 114.609,41.3938 127.5,51.5 Z"/></g>
<g><path style="opacity:1" fill="#e6f4fe" d="M 135.5,62.5 C 139.758,68.7475 141.758,75.7475 141.5,83.5C 154.287,85.4485 163.121,92.4485 168,104.5C 172.296,126.868 163.463,141.035 141.5,147C 126.837,147.5 112.17,147.667 97.5,147.5C 83.6565,147.829 69.9898,147.496 56.5,146.5C 63.175,146.666 69.8417,146.5 76.5,146C 84.6899,141.481 92.0232,135.814 98.5,129C 95.3054,128.819 92.3054,128.319 89.5,127.5C 102.288,129.756 111.621,125.256 117.5,114C 118.933,108.894 118.6,103.894 116.5,99C 116.164,97.9701 115.497,97.4701 114.5,97.5C 113.833,96.5 113.167,95.5 112.5,94.5C 114.315,95.6298 116.315,96.2964 118.5,96.5C 118.181,98.7505 118.681,100.75 120,102.5C 127.433,90.031 132.6,76.6977 135.5,62.5 Z"/></g>
<g><path style="opacity:1" fill="#f24834" d="M 98.5,71.5 C 101.19,73.1935 103.19,75.5268 104.5,78.5C 101.624,78.0728 98.7906,77.4062 96,76.5C 94.415,77.0439 92.915,77.7106 91.5,78.5C 91.6602,76.8008 91.4935,75.1341 91,73.5C 88.0335,71.7099 88.0335,70.3765 91,69.5C 93.5436,70.0712 96.0436,70.7379 98.5,71.5 Z"/></g>
<g><path style="opacity:1" fill="#cfc9c7" d="M 98.5,71.5 C 102.332,72.8184 105.499,75.1517 108,78.5C 108.499,83.8229 108.666,89.1563 108.5,94.5C 109.5,94.5 110.5,94.5 111.5,94.5C 110.833,95.8333 109.833,96.8333 108.5,97.5C 107.041,97.5674 105.708,97.2341 104.5,96.5C 104.401,93.7628 104.735,91.0961 105.5,88.5C 105.658,85.0977 105.324,81.7644 104.5,78.5C 103.19,75.5268 101.19,73.1935 98.5,71.5 Z"/></g>
<g><path style="opacity:1" fill="#f8561b" d="M 104.5,78.5 C 105.324,81.7644 105.658,85.0977 105.5,88.5C 100.817,85.0751 95.4836,83.7418 89.5,84.5C 90.6298,82.6854 91.2964,80.6854 91.5,78.5C 92.915,77.7106 94.415,77.0439 96,76.5C 98.7906,77.4062 101.624,78.0728 104.5,78.5 Z"/></g>
<g><path style="opacity:1" fill="#d1c9c5" d="M 79.5,86.5 C 81.9479,85.5269 84.6146,85.1936 87.5,85.5C 84.9033,88.3557 83.0699,91.6891 82,95.5C 82.0704,92.008 81.2371,89.008 79.5,86.5 Z"/></g>
<g><path style="opacity:1" fill="#fc6b0b" d="M 89.5,84.5 C 95.4836,83.7418 100.817,85.0751 105.5,88.5C 104.735,91.0961 104.401,93.7628 104.5,96.5C 102.914,95.3247 101.414,93.9914 100,92.5C 98.9568,96.2259 98.4568,95.8926 98.5,91.5C 98.3036,89.3544 97.3036,89.1878 95.5,91C 92.8643,93.7729 90.8643,96.9395 89.5,100.5C 88.7784,100.082 88.2784,99.4158 88,98.5C 83.0194,102.46 79.5194,107.46 77.5,113.5C 76.5832,112.873 75.5832,112.539 74.5,112.5C 74.2041,110.597 73.5375,108.93 72.5,107.5C 71.8721,99.3831 74.2054,92.3831 79.5,86.5C 81.2371,89.008 82.0704,92.008 82,95.5C 83.0699,91.6891 84.9033,88.3557 87.5,85.5C 88.1667,85.1667 88.8333,84.8333 89.5,84.5 Z"/></g>
<g><path style="opacity:1" fill="#fe8707" d="M 89.5,100.5 C 89.1936,103.385 89.5269,106.052 90.5,108.5C 89.1446,112.158 87.6446,111.825 86,107.5C 83.8951,110.107 83.0617,113.107 83.5,116.5C 82.1895,117.92 81.5228,119.253 81.5,120.5C 78.4503,118.451 76.117,115.784 74.5,112.5C 75.5832,112.539 76.5832,112.873 77.5,113.5C 79.5194,107.46 83.0194,102.46 88,98.5C 88.2784,99.4158 88.7784,100.082 89.5,100.5 Z"/></g>
<g><path style="opacity:1" fill="#fe7d04" d="M 98.5,91.5 C 98.4568,95.8926 98.9568,96.2259 100,92.5C 101.414,93.9914 102.914,95.3247 104.5,96.5C 105.708,97.2341 107.041,97.5674 108.5,97.5C 108.082,98.2216 107.416,98.7216 106.5,99C 109.7,103.762 112.033,108.928 113.5,114.5C 112.581,117.089 110.914,119.089 108.5,120.5C 107.082,117.98 106.082,115.313 105.5,112.5C 105.025,110.216 104.025,108.216 102.5,106.5C 98.257,102.129 96.9237,97.1292 98.5,91.5 Z"/></g>
<g><path style="opacity:1" fill="#fa660f" d="M 111.5,94.5 C 111.833,94.5 112.167,94.5 112.5,94.5C 113.167,95.5 113.833,96.5 114.5,97.5C 117.378,103.439 117.045,109.106 113.5,114.5C 112.033,108.928 109.7,103.762 106.5,99C 107.416,98.7216 108.082,98.2216 108.5,97.5C 109.833,96.8333 110.833,95.8333 111.5,94.5 Z"/></g>
<g><path style="opacity:1" fill="#ffef7d" d="M 98.5,91.5 C 96.9237,97.1292 98.257,102.129 102.5,106.5C 101,108.179 99.167,109.512 97,110.5C 94.6877,110.045 92.6877,109.045 91,107.5C 90.6012,107.728 90.4346,108.062 90.5,108.5C 89.5269,106.052 89.1936,103.385 89.5,100.5C 90.8643,96.9395 92.8643,93.7729 95.5,91C 97.3036,89.1878 98.3036,89.3544 98.5,91.5 Z"/></g>
<g><path style="opacity:1" fill="#fff4ac" d="M 102.5,106.5 C 104.025,108.216 105.025,110.216 105.5,112.5C 106.075,116.155 105.075,119.155 102.5,121.5C 96.1293,122.143 90.1293,121.143 84.5,118.5C 84.6716,117.508 84.3382,116.842 83.5,116.5C 83.0617,113.107 83.8951,110.107 86,107.5C 87.6446,111.825 89.1446,112.158 90.5,108.5C 90.4346,108.062 90.6012,107.728 91,107.5C 92.6877,109.045 94.6877,110.045 97,110.5C 99.167,109.512 101,108.179 102.5,106.5 Z"/></g>
<g><path style="opacity:1" fill="#c1c0be" d="M 114.5,97.5 C 115.497,97.4701 116.164,97.9701 116.5,99C 118.6,103.894 118.933,108.894 117.5,114C 111.621,125.256 102.288,129.756 89.5,127.5C 79.8809,124.213 74.2142,117.546 72.5,107.5C 73.5375,108.93 74.2041,110.597 74.5,112.5C 76.117,115.784 78.4503,118.451 81.5,120.5C 88.0912,125.532 95.4245,126.699 103.5,124C 105.584,123.303 107.251,122.136 108.5,120.5C 110.914,119.089 112.581,117.089 113.5,114.5C 117.045,109.106 117.378,103.439 114.5,97.5 Z"/></g>
<g><path style="opacity:1" fill="#f99c21" d="M 105.5,112.5 C 106.082,115.313 107.082,117.98 108.5,120.5C 107.251,122.136 105.584,123.303 103.5,124C 95.4245,126.699 88.0912,125.532 81.5,120.5C 81.5228,119.253 82.1895,117.92 83.5,116.5C 84.3382,116.842 84.6716,117.508 84.5,118.5C 85.6253,120.129 86.9586,121.629 88.5,123C 92.8333,123.667 97.1667,123.667 101.5,123C 102.056,122.617 102.389,122.117 102.5,121.5C 105.075,119.155 106.075,116.155 105.5,112.5 Z"/></g>
<g><path style="opacity:1" fill="#fece62" d="M 84.5,118.5 C 90.1293,121.143 96.1293,122.143 102.5,121.5C 102.389,122.117 102.056,122.617 101.5,123C 97.1667,123.667 92.8333,123.667 88.5,123C 86.9586,121.629 85.6253,120.129 84.5,118.5 Z"/></g>
<g><path style="opacity:1" fill="#50a8ff" d="M 42.5,141.5 C 46.7329,144.279 51.3995,145.945 56.5,146.5C 69.9898,147.496 83.6565,147.829 97.5,147.5C 98.0988,165.495 101.765,182.828 108.5,199.5C 89.8333,199.5 71.1667,199.5 52.5,199.5C 49.8935,190.855 47.3935,182.188 45,173.5C 42.9612,162.93 42.1278,152.263 42.5,141.5 Z"/></g>
<g><path style="opacity:0.841" fill="#49b3ff" d="M 199.5,167.5 C 199.5,168.833 199.5,170.167 199.5,171.5C 195.833,186.5 186.5,195.833 171.5,199.5C 170.167,199.5 168.833,199.5 167.5,199.5C 183.842,194.491 194.509,183.825 199.5,167.5 Z"/></g>
</svg>
