<?xml version="1.0" standalone="no"?><!DOCTYPE svg PUBLIC "-//W3C//DTD SVG 1.1//EN" "http://www.w3.org/Graphics/SVG/1.1/DTD/svg11.dtd"><svg t="1731399615107" class="icon" viewBox="0 0 1024 1024" version="1.1" xmlns="http://www.w3.org/2000/svg" p-id="20129" xmlns:xlink="http://www.w3.org/1999/xlink" width="48" height="48"><path d="M0 0m160 0l704 0q160 0 160 160l0 704q0 160-160 160l-704 0q-160 0-160-160l0-704q0-160 160-160Z" fill="#EDEDED" p-id="20130"></path><path d="M840.46 240.854L554.706 476.826a66.492 66.492 0 0 1-85.228-0.184L185.032 239.638a16.888 16.888 0 0 0-27.254 13.672v466.186c0 38.2 30.29 69.152 67.648 69.152h574.926c37.356 0 67.648-30.97 67.648-69.152V254.304a16.88 16.88 0 0 0-27.54-13.45z" fill="#D1C4E9" p-id="20131"></path><path d="M715.818 343.788L470.968 545.976a66.508 66.508 0 0 1-85.156-0.128L157.78 356.428v363.088c0 38.2 30.29 69.15 67.648 69.15H715.82z" fill="#7C4DFF" p-id="20132"></path></svg>