<?xml version="1.0" standalone="no"?><!DOCTYPE svg PUBLIC "-//W3C//DTD SVG 1.1//EN" "http://www.w3.org/Graphics/SVG/1.1/DTD/svg11.dtd"><svg t="1731399770378" class="icon" viewBox="0 0 1024 1024" version="1.1" xmlns="http://www.w3.org/2000/svg" p-id="23103" xmlns:xlink="http://www.w3.org/1999/xlink" width="48" height="48"><path d="M217.6 512l-135.68-138.24H2.56v294.4h79.36v-209.92l133.12 138.24 140.8-143.36v209.92H435.2v-61.44c-25.6-25.6-38.4-58.88-38.4-94.72 0-38.4 15.36-71.68 38.4-94.72v-40.96h-79.36L217.6 512z" fill="#2C91DE" p-id="23104"></path><path d="M704 568.32c-17.92 0-30.72 15.36-30.72 15.36-56.32 51.2-138.24 58.88-202.24 17.92 30.72 46.08 81.92 76.8 140.8 76.8 48.64 0 94.72-20.48 125.44-56.32 0 0 2.56-12.8 2.56-20.48-5.12-20.48-17.92-33.28-35.84-33.28z" fill="#ED4636" p-id="23105"></path><path d="M816.64 450.56h69.12V665.6h-69.12v-215.04z m135.68-107.52h69.12V665.6h-69.12V343.04zM806.4 386.56c0 25.6 20.48 43.52 43.52 43.52 25.6 0 43.52-20.48 43.52-43.52 0-23.04-20.48-43.52-43.52-43.52s-43.52 17.92-43.52 43.52z" fill="#2C91DE" p-id="23106"></path><path d="M642.56 345.6s-12.8 2.56-20.48 7.68c-12.8 10.24-17.92 28.16-7.68 43.52 10.24 15.36 28.16 17.92 28.16 17.92 38.4 12.8 71.68 38.4 94.72 74.24 15.36 28.16 23.04 58.88 20.48 92.16 25.6-48.64 25.6-107.52-2.56-158.72-25.6-38.4-66.56-69.12-112.64-76.8z" fill="#82D531" p-id="23107"></path><path d="M512 558.08c10.24-15.36 2.56-33.28 2.56-33.28-10.24-40.96-2.56-81.92 17.92-117.76 15.36-28.16 40.96-48.64 69.12-64-53.76 2.56-104.96 30.72-135.68 81.92-23.04 40.96-28.16 89.6-12.8 135.68 0 0 7.68 7.68 17.92 12.8 12.8 7.68 30.72 2.56 40.96-15.36z" fill="#F8BE32" p-id="23108"></path><path d="M668.16 529.92c-2.56-12.8-12.8-23.04-12.8-23.04 2.56-12.8-2.56-12.8-2.56-12.8 0-38.4-33.28-35.84-33.28-35.84s-33.28 0-33.28 35.84c0 0-5.12 2.56-2.56 12.8 0 0-10.24 7.68-12.8 23.04 0 0-2.56 23.04 10.24 2.56 0 0 2.56 7.68 7.68 12.8 0 0-7.68 2.56-7.68 10.24 0 0 0 7.68 17.92 7.68 0 0 12.8 0 17.92-7.68h5.12c5.12 5.12 17.92 7.68 17.92 7.68 20.48 0 17.92-7.68 17.92-7.68 0-7.68-7.68-10.24-7.68-10.24 5.12-7.68 7.68-12.8 7.68-12.8 12.8 20.48 10.24-2.56 10.24-2.56z" fill="#1599FF" p-id="23109"></path></svg>