<?xml version="1.0" standalone="no"?><!DOCTYPE svg PUBLIC "-//W3C//DTD SVG 1.1//EN" "http://www.w3.org/Graphics/SVG/1.1/DTD/svg11.dtd"><svg t="1731401797418" class="icon" viewBox="0 0 1024 1024" version="1.1" xmlns="http://www.w3.org/2000/svg" p-id="43203" xmlns:xlink="http://www.w3.org/1999/xlink" width="48" height="48"><path d="M514.813187 897.406593c-214.364835 0-388.21978-173.854945-388.21978-388.21978s173.854945-388.21978 388.21978-388.21978 388.21978 173.854945 388.21978 388.21978-173.854945 388.21978-388.21978 388.21978z" fill="#3131F7" p-id="43204"></path><path d="M731.428571 376.967033m-90.021978 0a90.021978 90.021978 0 1 0 180.043956 0 90.021978 90.021978 0 1 0-180.043956 0Z" fill="#FDFDFF" p-id="43205"></path><path d="M669.538462 343.208791l98.461538 101.837363-235.745055 178.356044-47.824176-49.512088z" fill="#FDFDFF" p-id="43206"></path><path d="M731.428571 376.967033m-67.516483 0a67.516484 67.516484 0 1 0 135.032967 0 67.516484 67.516484 0 1 0-135.032967 0Z" fill="#5B5BF4" p-id="43207"></path><path d="M731.428571 376.967033m-56.263736 0a56.263736 56.263736 0 1 0 112.527473 0 56.263736 56.263736 0 1 0-112.527473 0Z" fill="#FDFDFF" p-id="43208"></path><path d="M489.494505 613.274725m-56.263736 0a56.263736 56.263736 0 1 0 112.527473 0 56.263736 56.263736 0 1 0-112.527473 0Z" fill="#FDFDFF" p-id="43209"></path><path d="M489.494505 613.274725m-39.384615 0a39.384615 39.384615 0 1 0 78.769231 0 39.384615 39.384615 0 1 0-78.769231 0Z" fill="#5B5BF4" p-id="43210"></path><path d="M475.428571 644.782418L201.986813 519.876923c-15.191209-6.751648-21.38022-24.756044-14.628571-39.384615l4.501099-10.127473c6.751648-15.191209 24.756044-21.38022 39.384615-14.628571l273.441758 124.905494c15.191209 6.751648 21.38022 24.756044 14.628572 39.384616l-4.501099 10.127472c-6.751648 15.191209-24.193407 21.942857-39.384616 14.628572z" fill="#FDFDFF" p-id="43211"></path></svg>