<?xml version="1.0" standalone="no"?><!DOCTYPE svg PUBLIC "-//W3C//DTD SVG 1.1//EN" "http://www.w3.org/Graphics/SVG/1.1/DTD/svg11.dtd"><svg t="1731397067988" class="icon" viewBox="0 0 1436 1024" version="1.1" xmlns="http://www.w3.org/2000/svg" p-id="5287" xmlns:xlink="http://www.w3.org/1999/xlink" width="67.3125" height="48"><path d="M884.116 610.525c-13.193 13.193-39.578 32.981-85.751 32.981H514.726c85.75-82.453 158.31-151.713 164.906-158.31 6.596-6.596 23.087-23.086 39.577-36.279 32.982-29.684 59.367-32.981 82.453-32.981 32.982 0 59.366 13.192 82.454 32.981 46.173 42.876 46.173 118.732 0 161.608m56.068-214.377c-32.982-36.28-82.454-59.367-135.224-59.367-46.173 0-85.75 16.49-122.03 42.876-13.193 13.192-32.981 26.385-49.472 46.173-13.192 13.192-296.83 290.235-296.83 290.235 16.49 3.298 36.28 3.298 52.77 3.298h359.494c26.385 0 46.173 0 65.963-3.298 42.875-3.298 85.75-19.79 122.03-52.77 75.857-72.559 75.857-194.59 3.299-267.148z" fill="#00A3FF" p-id="5288"></path><path d="M478.447 376.359c-36.28-26.385-72.56-39.578-115.435-39.578-52.77 0-102.241 23.087-135.222 59.366-72.56 75.858-72.56 194.59 3.297 270.446 32.982 29.683 65.963 46.173 105.54 49.472l75.858-72.559h-42.876c-42.876-3.298-69.261-16.49-85.751-32.981-46.174-46.173-46.174-118.732-3.299-164.906 23.087-23.087 49.472-32.981 82.453-32.981 19.79 0 49.472 3.298 79.156 32.98 13.191 13.193 49.471 39.578 62.663 52.77h3.299l49.471-49.47v-3.3c-23.086-23.086-59.367-52.769-79.154-69.26" fill="#00C8DC" p-id="5289"></path><path d="M824.749 293.906C788.47 194.96 692.824 125.702 583.987 125.702c-128.628 0-230.869 95.645-250.658 214.377 9.895 0 19.79-3.298 32.982-3.298s29.683 3.298 42.875 3.298c16.49-82.453 89.048-141.82 174.8-141.82 72.559 0.001 135.223 42.876 164.906 105.54 0 0 3.299 3.298 3.299 0 23.086-3.298 49.471-9.894 72.558-9.894 0 3.298 0 3.298 0 0" fill="#006EFF" p-id="5290"></path></svg>