<?xml version="1.0" standalone="no"?><!DOCTYPE svg PUBLIC "-//W3C//DTD SVG 1.1//EN" "http://www.w3.org/Graphics/SVG/1.1/DTD/svg11.dtd"><svg t="1731398690076" class="icon" viewBox="0 0 1024 1024" version="1.1" xmlns="http://www.w3.org/2000/svg" p-id="10929" xmlns:xlink="http://www.w3.org/1999/xlink" width="48" height="48"><path d="M0 0v1024h1024V0H4.096" fill="#33CCCC" p-id="10930"></path><path d="M584.704 737.28c-34.304 1.536-236.544 11.776-378.88 5.12-21.504-1.024-59.392-3.584-87.04-30.72-33.792-33.28-31.744-78.848-30.72-102.4 2.048-50.176 26.112-84.992 35.84-97.28 35.84-46.592 84.48-60.416 99.328-64 1.024 0 8.192-1.024 12.288-7.68 4.096-7.168 1.024-14.336 1.024-15.36 1.024-16.384 5.632-73.728 51.2-117.76 54.272-52.736 125.952-47.616 148.48-46.08 62.976 4.608 105.472 36.352 117.76 46.08 42.496 34.304 60.416 75.264 67.072 93.184 0.512 0.512 3.584 3.584 8.704 4.096 6.144 0 9.728-4.608 10.24-5.12 6.144-5.12 27.136-20.48 57.344-20.48 8.192 0 39.424 0 61.44 25.6 25.6 29.696 15.36 68.608 14.336 71.68-2.048 3.072-2.048 7.168 0 10.24 2.56 3.584 8.192 4.608 12.288 2.048 8.704-2.56 80.384-22.016 126.976 18.432 59.904 52.224 43.52 174.592-25.6 220.16-36.864 24.576-86.016 24.576-122.88 10.24-13.824-5.12-48.64-18.944-66.56-56.32-16.384-34.304-7.68-67.584-5.12-76.8h35.84L675.84 527.36c-0.512-1.024-5.632-9.216-15.36-10.24-7.68-1.024-15.872 2.56-20.48 9.216-19.968 31.232-40.448 61.952-60.416 93.184h46.08c-1.024 16.896-1.024 45.056 10.24 76.8 5.12 15.36 16.384 45.568 46.08 71.68 26.624 23.552 54.272 31.232 71.68 35.84 9.216 2.56 43.008 11.264 87.04 5.12 19.456-2.56 52.736-7.168 87.04-30.72 49.664-34.304 66.048-84.48 71.68-102.4 2.56-7.68 10.24-33.28 10.24-66.56 0-17.92 0-47.616-15.36-81.92-4.608-10.24-18.944-40.448-51.2-66.56-51.712-41.984-110.592-41.472-128-40.96 2.56-7.168 5.12-17.408 5.12-30.72 0-8.192-1.024-39.936-25.6-66.56-25.088-27.136-57.856-30.208-66.56-30.72-45.568-3.072-76.8 25.6-81.92 30.72-9.216-19.456-32.256-63.488-81.92-97.28-55.808-37.888-111.616-40.96-133.12-40.96-25.6-2.048-83.456-2.56-143.36 30.72-11.776 6.656-46.08 26.624-76.8 66.56-27.648 35.84-40.448 70.656-46.08 92.16-18.432 9.216-45.568 25.088-71.68 51.2-2.048 2.048-27.648 28.672-46.08 61.44-27.648 49.664-60.416 159.232 0 245.76 48.64 69.632 128.512 83.968 148.48 87.04 133.12-1.536 266.24-3.584 399.36-5.12 3.072-2.56 13.824-13.312 15.36-30.72 1.024-11.776-3.072-20.992-5.12-25.6-6.656-12.8-16.896-18.432-20.48-20.48z" fill="#FFFFFF" p-id="10931"></path></svg>