<?xml version="1.0" standalone="no"?><!DOCTYPE svg PUBLIC "-//W3C//DTD SVG 1.1//EN" "http://www.w3.org/Graphics/SVG/1.1/DTD/svg11.dtd"><svg t="1731402315102" class="icon" viewBox="0 0 1024 1024" version="1.1" xmlns="http://www.w3.org/2000/svg" p-id="4249" xmlns:xlink="http://www.w3.org/1999/xlink" width="48" height="48"><path d="M64 271.9744h896c17.7152 0 31.9488 14.336 31.9488 31.9488v576c0 17.7152-14.336 31.9488-31.9488 31.9488h-896c-17.7152 0-31.9488-14.336-31.9488-31.9488V304.0256c-0.1024-17.7152 14.2336-32.0512 31.9488-32.0512z" fill="#F0EEE2" p-id="4250"></path><path d="M64 304.0256v239.9232h384v-15.9744h128v15.9744h384V304.0256z" fill="#BBAA9C" p-id="4251"></path><path d="M624.0256 688.0256c-8.8064 0-15.9744 7.168-15.9744 15.9744s7.168 15.9744 15.9744 15.9744 15.9744-7.168 15.9744-15.9744-7.168-15.9744-15.9744-15.9744z m256 111.9232h-79.9744c-8.8064 0.2048-15.7696 7.5776-15.5648 16.384 0.2048 8.4992 7.0656 15.36 15.5648 15.5648h79.9744c8.8064 0.2048 16.1792-6.7584 16.384-15.5648s-6.7584-16.1792-15.5648-16.384h-0.8192zM143.9744 384c0-8.8064-7.168-15.9744-15.9744-15.9744H48.0256c-8.8064 0-15.9744 7.168-15.9744 15.9744s7.168 15.9744 15.9744 15.9744H128c8.8064 0 15.9744-7.168 15.9744-15.9744z m592.0768 48.0256h-32.0512c-8.8064 0.2048-15.7696 7.5776-15.5648 16.384 0.2048 8.4992 7.0656 15.36 15.5648 15.5648h31.9488c8.8064-0.2048 15.7696-7.5776 15.5648-16.384-0.1024-8.4992-6.9632-15.36-15.4624-15.5648z m79.9744 256c0-8.8064-7.168-15.9744-15.9744-15.9744H768c-8.8064 0-15.9744 7.168-15.9744 15.9744s7.168 15.9744 15.9744 15.9744h31.9488c8.9088 0 16.0768-7.168 16.0768-15.9744zM415.9488 448c0-8.8064-7.168-15.9744-15.9744-15.9744h-79.9744c-8.8064 0.2048-15.7696 7.5776-15.5648 16.384 0.2048 8.4992 7.0656 15.36 15.5648 15.5648h79.9744c8.9088 0 15.9744-7.168 15.9744-15.9744z m0 320H384c-8.8064 0-15.9744 7.168-15.9744 15.9744s7.168 15.9744 15.9744 15.9744h31.9488c8.8064 0 15.9744-7.168 15.9744-15.9744s-7.0656-15.9744-15.9744-15.9744z m-191.8976 31.9488h-79.9744c-8.8064-0.2048-16.1792 6.7584-16.384 15.5648s6.7584 16.1792 15.5648 16.384H224.0512c8.8064-0.2048 15.7696-7.5776 15.5648-16.384-0.2048-8.3968-7.0656-15.2576-15.5648-15.5648z m47.9232-143.9744H256c-8.8064 0.2048-15.7696 7.5776-15.5648 16.384 0.2048 8.4992 7.0656 15.36 15.5648 15.5648h15.9744c8.8064-0.2048 15.7696-7.5776 15.5648-16.384-0.2048-8.4992-7.0656-15.36-15.5648-15.5648zM896 368.0256h-15.9744c-8.8064 0-15.9744 7.168-15.9744 15.9744s7.168 15.9744 15.9744 15.9744H896c8.8064 0 15.9744-7.168 15.9744-15.9744s-7.168-15.9744-15.9744-15.9744z" fill="#D8D5BA" p-id="4252"></path><path d="M960 240.0256H736.0512v-95.9488c0-35.328-28.672-64-64-64H352.0512c-35.328 0-64 28.672-64 64v96.0512H64C28.672 240.0256 0 268.6976 0 304.0256v576c0 35.328 28.672 64 64 64h896c35.328 0 64-28.672 64-64V304.0256c0-35.328-28.672-64-64-64z m-607.9488-96.0512h320v96.0512H352.0512v-96.0512z m608.0512 735.9488H63.8976V576h352.1536v16.0768c0 17.7152 14.336 31.9488 31.9488 31.9488h128c17.7152 0 31.9488-14.336 31.9488-31.9488v-16.0768h352.1536v303.9232zM448.1024 591.872v-64.1024h127.7952V591.872H448.1024z m512-48.0256H608.0512v-15.872c0-17.7152-14.336-31.9488-31.9488-31.9488h-128c-17.7152 0-31.9488 14.336-31.9488 31.9488v15.872h-352.256V303.9232h896.2048v239.9232z" fill="#5F4E56" p-id="4253"></path></svg>