<?xml version="1.0" standalone="no"?><!DOCTYPE svg PUBLIC "-//W3C//DTD SVG 1.1//EN" "http://www.w3.org/Graphics/SVG/1.1/DTD/svg11.dtd"><svg t="1731400480008" class="icon" viewBox="0 0 1024 1024" version="1.1" xmlns="http://www.w3.org/2000/svg" p-id="29353" xmlns:xlink="http://www.w3.org/1999/xlink" width="48" height="48"><path d="M327.68 92.16c28.16-2.56 56.32 2.56 81.92 12.8 58.88 20.48 115.2 46.08 168.96 74.24 92.16 48.64 179.2 104.96 263.68 166.4 35.84 28.16 74.24 56.32 102.4 92.16 17.92 20.48 30.72 48.64 28.16 76.8-5.12 33.28-25.6 61.44-48.64 84.48-92.16 92.16-192 176.64-302.08 245.76-56.32 35.84-115.2 66.56-176.64 89.6-38.4 15.36-81.92 28.16-122.88 23.04-25.6-2.56-48.64-12.8-66.56-33.28-15.36-17.92-23.04-38.4-28.16-61.44v-2.56c17.92-5.12 35.84-10.24 56.32-15.36 76.8-20.48 153.6-53.76 225.28-89.6 76.8-40.96 151.04-87.04 220.16-140.8 23.04-17.92 48.64-35.84 58.88-64 10.24-20.48 7.68-46.08-5.12-64-12.8-23.04-33.28-40.96-51.2-56.32-23.04-17.92-48.64-35.84-74.24-48.64-48.64-30.72-99.84-56.32-151.04-84.48-58.88-30.72-120.32-56.32-181.76-76.8-28.16-7.68-56.32-17.92-84.48-25.6 2.56-12.8 7.68-25.6 12.8-38.4 15.36-35.84 43.52-58.88 74.24-64z" fill="#10ABF2" p-id="29354"></path><path d="M156.16 197.12c25.6-12.8 56.32-10.24 84.48-5.12-10.24 38.4-15.36 79.36-20.48 117.76 0 17.92-2.56 33.28-5.12 51.2-2.56 20.48-2.56 43.52-5.12 64 0 25.6-2.56 48.64-2.56 74.24-2.56 23.04 0 48.64-2.56 71.68 0 35.84 0 71.68 2.56 107.52 2.56 53.76 5.12 110.08 12.8 163.84v7.68c-25.6 5.12-56.32 10.24-79.36-7.68-23.04-17.92-30.72-48.64-38.4-76.8-12.8-84.48-20.48-176.64-20.48-268.8 0-48.64 5.12-94.72 12.8-140.8 5.12-38.4 12.8-76.8 25.6-112.64 5.12-20.48 17.92-38.4 35.84-46.08z" fill="#FF8F21" p-id="29355"></path><path d="M240.64 189.44h5.12c28.16 7.68 56.32 17.92 84.48 25.6 61.44 20.48 122.88 48.64 181.76 76.8 51.2 28.16 102.4 53.76 151.04 84.48 25.6 15.36 51.2 30.72 74.24 48.64 20.48 15.36 38.4 33.28 51.2 56.32 10.24 17.92 12.8 43.52 5.12 64-12.8 28.16-38.4 46.08-58.88 64-71.68 56.32-145.92 102.4-222.72 143.36-71.68 38.4-145.92 69.12-225.28 89.6-17.92 5.12-35.84 10.24-56.32 15.36-2.56 0-7.68 2.56-10.24 2.56 0-5.12 0-10.24-2.56-15.36-7.68-53.76-10.24-110.08-12.8-163.84-2.56-35.84-2.56-71.68-2.56-107.52 0-23.04 0-48.64 2.56-71.68 0-25.6 2.56-48.64 2.56-74.24 2.56-20.48 2.56-43.52 5.12-64 2.56-17.92 2.56-33.28 5.12-51.2 7.68-40.96 12.8-81.92 23.04-122.88m104.96 143.36c-10.24 2.56-15.36 15.36-15.36 25.6v317.44c0 10.24 2.56 23.04 10.24 25.6 10.24 2.56 20.48 0 28.16-7.68l215.04-153.6c10.24-7.68 17.92-17.92 17.92-30.72s-10.24-20.48-20.48-28.16c-71.68-48.64-145.92-97.28-217.6-145.92-2.56 0-10.24-5.12-17.92-2.56z" fill="#7DE621" p-id="29356"></path><path d="M345.6 332.8c7.68-2.56 15.36 2.56 20.48 5.12 71.68 48.64 145.92 97.28 217.6 145.92 10.24 5.12 20.48 15.36 20.48 28.16 0 12.8-7.68 23.04-17.92 30.72l-215.04 153.6c-7.68 5.12-17.92 10.24-28.16 7.68-10.24-5.12-12.8-17.92-10.24-25.6v-125.44c-2.56-48.64 0-94.72 0-143.36-2.56-15.36-2.56-30.72 0-48.64-2.56-12.8 2.56-25.6 12.8-28.16z" fill="#FFFFFF" p-id="29357"></path></svg>